/* XPM */
static char *_7cee5a39b24479df3a4d41ace4708591zK2yebbQ8OGxCb6[] = {
/* columns rows colors chars-per-pixel */
"64 64 16 1 ",
"  c black",
". c #0B0B0B",
"X c gray6",
"o c #181818",
"O c #1D1D1D",
"+ c #2A2A2A",
"@ c #3E3E3E",
"# c #A0A0A0",
"$ c gray66",
"% c gray68",
"& c #B4B4B4",
"* c gray81",
"= c #D0D0D0",
"- c gray84",
"; c gray91",
": c white",
/* pixels */
"                                                                ",
"                                                                ",
"::::::::::::::::::::::::::::::  ::::::::::::::::::::::::::::::::",
"::::::::::::::::::::::::::::::  ::::::::::::::::::::::::::::::::",
"====::===:::::::::::::::::::::  ::::::::::::::::::::::::::::::::",
"====::===:::::::::::::::::::::  ::::::::::::::::::::::::::::::::",
"====::===::::::::======***::::  ::=======::::::===========::====",
"====::===::::::::======***::::  ::=======::::::===========::====",
"====::===::::::::======***::::  ::=======::::::===========::====",
":::::::::::::::========***            :::::::::::::====:::::::::",
":::::::::::::::========***            :::::::::::::====:::::::::",
"::::::=========::::::::   ::::::::::::   :::::::::::::::::::::::",
"::::::=========::::::::   ::::::::::::   :::::::::::::::::::::::",
":::::::::::::::::::::  ::::::::::::::::::  ::::::====:::::::::::",
":::::::::::::::::::::  ::::::::::::::::::  ::::::====:::::::::::",
"===================  ::::::::::::::::::::::  ::::::::===========",
"===================  ::::::::::::::::::::::  ::::::::===========",
":::::::::::::::::  ::::&&&&&&&&&&&&&&&&&&::::  :::::::::::::::::",
":::::::::::::::::  ::::&&&&&&&&&&&&&&&&&&::::  :::::::::::::::::",
":::::::::::::::::  :::::::::::--:::::::::::::  :::::::::::::::::",
":::::::::::::::::  :::::::::::--:::::::::::::  :::::::::::::::::",
"                   ::@@&&&&&&&&&&&&&&&&&&::::                   ",
"                   ::@@&&&&&&&&&&&&&&&&&&::::                   ",
":::::::::::::::::  ::::::::::::::::::::::::::  :::::::::::::::::",
":::::::::::::::::  ::::::::::::::::::::::::::  :::::::::::::::::",
":::::::::::::::::  ::::::::::::::::::::::::::  :::::::::::::::::",
":::::::::::::::::  :::::::&&&&&&&&&&&&:::::::  :::::::::::::::::",
":::::::::::::::::  :::::::&&&&&&&&&&&&:::::::  :::::::::::::::::",
"===============  ::::::::::::::::::::::::::::  ===========::::::",
"===============  ::::::::::::::::::::::::::::  ===========::::::",
"==:::::::::::::  :::::::::::&&&&&&&&:::::::::  :::::::::::::::::",
"==:::::::::::::  :::::::::::&&&&&&&&:::::::::  :::::::::::::::::",
":::::::::==::::::    ::&&&::&&&&&&&&::&&&::  :::::::::::::::::::",
":::::::::==::::::    ::&&&::&&&&&&&&::&&&::  :::::::::::::::::::",
"::::::=========::::==                    ++====:::::::::::::::::",
"::::::=========::::==                    ++====:::::::::::::::::",
":::::::::::::::::::::       %%$$##%%  ooo::::::::::===========::",
":::::::::::::::::::::       %%$$##%%  ooo::::::::::===========::",
":::::::::::::::::         ::::&&&&::     :::::::::::::::::::::::",
":::::::::::::::::         ::::&&&&::     :::::::::::::::::::::::",
":::::::::::::::::         ::::&&&&::     :::::::::::::::::::::::",
"                          ::::::::::::                          ",
"                          ::::::::::::                          ",
":::::::::::::::::::::  ::::::::::::::::::  :::::::::::::::::::::",
":::::::::::::::::::::  ::::::::::::::::::  :::::::::::::::::::::",
":::::::::::::::::::::  :::::::&&&&:::::::  :::::::::::::::::::::",
":::::::::::::::::::::  :::::::&&&&:::::::  :::::::::::::::::::::",
"::::===============..:::::::::&&::;;:::::::  ==::===========::::",
"::::===============..:::::::::&&::;;:::::::  ==::===========::::",
":::::::::::::::::::  :::::::::&&:::::::::::  :::::::::::::::::::",
":::::::::::::::::::  :::::::::&&:::::::::::  :::::::::::::::::::",
":::::::::::::::::::..     OO    XX           :::::::::::::::::::",
":::::::::::::::::::..     OO    XX           :::::::::::::::::::",
"::::::::::::::::::::::::::::    ::    :::=====================::",
"::::::::::::::::::::::::::::    ::    :::=====================::",
"::::::===============:::::::    ::  ::::::::::::::::::::::::::::",
"::::::===============:::::::    ::  ::::::::::::::::::::::::::::",
"::::::===============:::::::    ::  ::::::::::::::::::::::::::::",
":::::::::::::::::::::::=====    ==  ::===::==::========:::::::::",
":::::::::::::::::::::::=====    ==  ::===::==::========:::::::::",
"::::::::::::::::::::::::::::::::::  ::::::::::::::::::::::::::::",
"::::::::::::::::::::::::::::::::::  ::::::::::::::::::::::::::::",
"                                                                ",
"                                                                "
};
