/* XPM */
static char *a490c36ea5da4f1aa52dd9dca0976d9calv8xzawq0riRFYd[] = {
/* columns rows colors chars-per-pixel */
"64 64 16 1 ",
"  c black",
". c #0B0B0B",
"X c gray6",
"o c #161616",
"O c #1D1D1D",
"+ c #3E3E3E",
"@ c #7C7C7C",
"# c #939393",
"$ c gray67",
"% c #B4B4B4",
"& c gray81",
"* c #D0D0D0",
"= c gray84",
"- c #E9E9E9",
"; c #FBFBFB",
": c white",
/* pixels */
"                                                                ",
"                                                                ",
"::::::::::::::::::::::::::::::  ::::::::::::::::::::::::::::::::",
"::::::::::::::::::::::::::::::  ::::::::::::::::::::::::::::::::",
"****::***:::::::::::::::::::::  ::::::::::::::::::::::::::::::::",
"****::***:::::::::::::::::::::  ::::::::::::::::::::::::::::::::",
"****::***::::::::******&&&::::  ::*******::::::***********::****",
"****::***::::::::******&&&::::  ::*******::::::***********::****",
"****::***::::::::******&&&::::  ::*******::::::***********::****",
":::::::::::::::********&&&            :::::::::::::****:::::::::",
":::::::::::::::********&&&            :::::::::::::****:::::::::",
"::::::*********::::::::   ::::::::::::   :::::::::::::::::::::::",
"::::::*********::::::::   ::::::::::::   :::::::::::::::::::::::",
":::::::::::::::::::::  ::::::::::::::::::  ::::::****:::::::::::",
":::::::::::::::::::::  ::::::::::::::::::  ::::::****:::::::::::",
"*******************  ::::::::::::::::::::::  ::::::::***********",
"*******************  ::::::::::::::::::::::  ::::::::***********",
":::::::::::::::::  ::::%%%%%%%%%%%%%%%%%%::::  :::::::::::::::::",
":::::::::::::::::  ::::%%%%%%%%%%%%%%%%%%::::  :::::::::::::::::",
":::::::::::::::::  :::::::::::==:::::::::::::  :::::::::::::::::",
":::::::::::::::::  :::::::::::==:::::::::::::  :::::::::::::::::",
"                   ::++%%%%%%%%%%%%%%%%%%::::                   ",
"                   ::++%%%%%%%%%%%%%%%%%%::::                   ",
":::::::::::::::::  ::::::::::::::::::::::::::  :::::::::::::::::",
":::::::::::::::::  ::::::::::::::::::::::::::  :::::::::::::::::",
":::::::::::::::::  ::::::::::::::::::::::::::  :::::::::::::::::",
":::::::::::::::::  :::::::%%%%%%%%%%%%:::::::  :::::::::::::::::",
":::::::::::::::::  :::::::%%%%%%%%%%%%:::::::  :::::::::::::::::",
"***************  ::::::::::::::::::::::::::::  ***********::::::",
"***************  ::::::::::::::::::::::::::::  ***********::::::",
"**:::::::::::::  :::::::::::%%%%%%%%:::::::::  :::::::::::::::::",
"**:::::::::::::  :::::::::::%%%%%%%%:::::::::  :::::::::::::::::",
":::::::::**::::::    ::%%%::%%%%%%%%--%%%::  :::::::::::::::::::",
":::::::::**::::::    ::%%%::%%%%%%%%--%%%::  :::::::::::::::::::",
"::::::*********::::**                      ****:::::::::::::::::",
"::::::*********::::**                      ****:::::::::::::::::",
":::::::::::::::::::::       @@@@##$$         ::::::***********::",
":::::::::::::::::::::       @@@@##$$         ::::::***********::",
":::::::::::::::::::::     ::::%%%%::           :::::::::::::::::",
":::::::::::::::::::::     ::::%%%%::           :::::::::::::::::",
":::::::::::::::::::::     ::::%%%%::           :::::::::::::::::",
"                          ::::::::::::                          ",
"                          ::::::::::::                          ",
":::::::::::::::::::::  ::::::::::::::::::  ::    :::::::::::::::",
":::::::::::::::::::::  ::::::::::::::::::  ::    :::::::::::::::",
":::::::::::::::::::::  :::::::%%%%:::::::  :::::::::::::::::::::",
":::::::::::::::::::::  :::::::%%%%:::::::  :::::::::::::::::::::",
"::::***************..:::::::::::%%--:::::::  **::***********::::",
"::::***************..:::::::::::%%--:::::::  **::***********::::",
":::::::::::::::::::  :::::::::::%%:::::::::  :::::::::::::::::::",
":::::::::::::::::::  :::::::::::%%:::::::::  :::::::::::::::::::",
":::::::::::::::::;;..     OO    XX           :::::::::::::::::::",
":::::::::::::::::;;..     OO    XX           :::::::::::::::::::",
"::::::::::::::::::::::::::::  oo::    :::*********************::",
"::::::::::::::::::::::::::::  oo::    :::*********************::",
"::::::***************:::::::::::::    ::::::::::::::::::::::::::",
"::::::***************:::::::::::::    ::::::::::::::::::::::::::",
"::::::***************:::::::::::::    ::::::::::::::::::::::::::",
":::::::::::::::::::::::***********    ***::**::********:::::::::",
":::::::::::::::::::::::***********    ***::**::********:::::::::",
"::::::::::::::::::::::::::::::::::  ::::::::::::::::::::::::::::",
"::::::::::::::::::::::::::::::::::  ::::::::::::::::::::::::::::",
"                                                                ",
"                                                                "
};
