/* XPM */
static char *_0d3600887e74f43a3d6312d41ae0a56R7lrBQjgRffYZDyY[] = {
/* columns rows colors chars-per-pixel */
"30 30 16 1 ",
"  c black",
". c #0B0B0B",
"X c gray6",
"o c #161616",
"O c #1D1D1D",
"+ c #3E3E3E",
"@ c #7C7C7C",
"# c #939393",
"$ c gray67",
"% c #B4B4B4",
"& c gray81",
"* c #D0D0D0",
"= c gray84",
"- c gray91",
"; c #FBFBFB",
": c white",
/* pixels */
"                              ",
":::::::::::::: :::::::::::::::",
"**:*:::::::::: :::::::::::::::",
"**:*::::***&:: :***:::*****:**",
":::::::****&      ::::::**::::",
":::****:::: :::::: :::::::::::",
":::::::::: :::::::: :::**:::::",
"********* :::::::::: ::::*****",
":::::::: ::%%%%%%%%:: ::::::::",
":::::::: :::::=:::::: ::::::::",
"         :+%%%%%%%%::         ",
":::::::: :::::::::::: ::::::::",
":::::::: :::%%%%%%::: ::::::::",
"******* ::::::::::::: *****:::",
"*:::::: :::::%%%%:::: ::::::::",
"::::*:::  :%:%%%%-%: :::::::::",
":::****::*          **::::::::",
"::::::::::   @@#$    :::*****:",
"::::::::::  ::%%:     ::::::::",
"            ::::::            ",
":::::::::: :::::::: :  :::::::",
":::::::::: :::%%::: ::::::::::",
"::*******.:::::%-::: *:*****::",
"::::::::: :::::%:::: :::::::::",
"::::::::;.  O  X     :::::::::",
"::::::::::::: o:  :**********:",
":::*******::::::  ::::::::::::",
":::::::::::*****  *:*:****::::",
":::::::::::::::: :::::::::::::",
"                              "
};
