/* XPM */
static char *cb2d9b4df080484fa1ddc97aa84ce970P2Cl15cCjdBafuAb[] = {
/* columns rows colors chars-per-pixel */
"30 30 8 1 ",
"  c black",
". c #0B0B0B",
"X c #B4B4B4",
"o c #D0D0D0",
"O c gray84",
"+ c #EEEEEE",
"@ c #FBFBFB",
"# c white",
/* pixels */
"                              ",
"############## ###############",
"oo#o########## ###############",
"oo#o####oooo      o###ooooo#oo",
"#######oooo ###### #####oo####",
"###oooo### ######## ##########",
"######### ########## ##oo#####",
"oooooooo ##XXXXXXXX## ###ooooo",
"######## #####O###### ########",
"######## ##XXXXXXXX## ########",
"         ####o#####+#         ",
"######## ###XXXXXX### ########",
"####### ############# ########",
"ooooooo #####XXXX#### ooooo###",
"o#######  #X#XXXX#X# #########",
"####o#####          ##########",
"###oooo##o          oo########",
"##########   XXXX    ###ooooo#",
"########    ##XX#     ########",
"            ######            ",
"########## ######## # ########",
"########## ######## ##########",
"##ooooooo.########## o#ooooo##",
"######### ########## #########",
"########@.           #########",
"############  ##   oooooooooo#",
"###ooooooo##  ##   ###########",
"###########ooooo #o#o#oooo####",
"################ #############",
"                              "
};
