/* XPM */
static char *b3f6426cb8184aaeec08b347fbac90e847XiaRDCyHBCDBta[] = {
/* columns rows colors chars-per-pixel */
"64 64 8 1 ",
"  c black",
". c #0B0B0B",
"X c #B4B4B4",
"o c #D0D0D0",
"O c gray84",
"+ c #EEEEEE",
"@ c #FBFBFB",
"# c white",
/* pixels */
"                                                                ",
"                                                                ",
"##############################  ################################",
"##############################  ################################",
"oooo##ooo#####################  ################################",
"oooo##ooo#####################  ################################",
"oooo##ooo########ooooooooo            ooo######ooooooooooo##oooo",
"oooo##ooo########ooooooooo            ooo######ooooooooooo##oooo",
"oooo##ooo########ooooooooo            ooo######ooooooooooo##oooo",
"###############oooooooo   ############   ##########oooo#########",
"###############oooooooo   ############   ##########oooo#########",
"######ooooooooo######  ##################  #####################",
"######ooooooooo######  ##################  #####################",
"###################  ######################  ####oooo###########",
"###################  ######################  ####oooo###########",
"ooooooooooooooooo  ####XXXXXXXXXXXXXXXXXX####  ######ooooooooooo",
"ooooooooooooooooo  ####XXXXXXXXXXXXXXXXXX####  ######ooooooooooo",
"#################  ###########OO#############  #################",
"#################  ###########OO#############  #################",
"#################  ####XXXXXXXXXXXXXXXXXX####  #################",
"#################  ####XXXXXXXXXXXXXXXXXX####  #################",
"                   #########oo###########++##                   ",
"                   #########oo###########++##                   ",
"#################  #######XXXXXXXXXXXX#######  #################",
"#################  #######XXXXXXXXXXXX#######  #################",
"#################  #######XXXXXXXXXXXX#######  #################",
"###############  ############################  #################",
"###############  ############################  #################",
"ooooooooooooooo  ###########XXXXXXXX#########  ooooooooooo######",
"ooooooooooooooo  ###########XXXXXXXX#########  ooooooooooo######",
"oo###############    ##XXX##XXXXXXXX##XXX##  ###################",
"oo###############    ##XXX##XXXXXXXX##XXX##  ###################",
"#########oo##########                      #####################",
"#########oo##########                      #####################",
"######ooooooooo####oo                      oooo#################",
"######ooooooooo####oo                      oooo#################",
"#####################       XXXXXXXX         ######ooooooooooo##",
"#####################       XXXXXXXX         ######ooooooooooo##",
"#################         ####XXXX##           #################",
"#################         ####XXXX##           #################",
"#################         ####XXXX##           #################",
"                          ############                          ",
"                          ############                          ",
"#####################  ##################  ##  #################",
"#####################  ##################  ##  #################",
"#####################  ##################  #####################",
"#####################  ##################  #####################",
"####ooooooooooooooo..######################  oo##ooooooooooo####",
"####ooooooooooooooo..######################  oo##ooooooooooo####",
"###################  ######################  ###################",
"###################  ######################  ###################",
"#################@@..                        ###################",
"#################@@..                        ###################",
"##########################    ####       ooooooooooooooooooooo##",
"##########################    ####       ooooooooooooooooooooo##",
"######ooooooooooooooo#####    ####       #######################",
"######ooooooooooooooo#####    ####       #######################",
"######ooooooooooooooo#####    ####       #######################",
"#######################ooooooooooo  ##ooo##oo##oooooooo#########",
"#######################ooooooooooo  ##ooo##oo##oooooooo#########",
"##################################  ############################",
"##################################  ############################",
"                                                                ",
"                                                                "
};
