/* XPM */
static char *_0da041ec3124fc9ac3a8fe4f72db222gxRb6TjU9Ljn3TdR[] = {
/* columns rows colors chars-per-pixel */
"30 30 9 1 ",
"  c black",
". c #3E260D",
"X c #532E09",
"o c #796A5B",
"O c #AD6215",
"+ c #C68A4E",
"@ c #C69A4E",
"# c #D0D0D0",
"$ c white",
/* pixels */
"                              ",
"$$$$$$$$$$$$$$ $$$$$$$$$$$$$$$",
"##$#$$$$$$$$$$ $$$$$$$$$$$$$$$",
"##$#$$$$####$$ $###$$$#####$##",
"$$$$$$$####XXXXXXXX.$$$$##$$$$",
"$$$####$$$X+++++++@X.$$$$$$$$$",
"$$$$$$$$XX++++++X++@X.$##$$$$$",
"#######X++++++++XX+@X..$$#####",
"$$$$$$X+++++++++..++@X.$$$$$$$",
"$$$$$X++++++++++++++@X..$$$$$$",
"    XX++++XO++++++XO+@@X..    ",
"$$$$X+++++..++++++..+..@X..$$$",
"$$$$X++++++++++++++++++.@@X$$$",
"###XX@++++++++X+++++++++..X$$$",
"#$$XX@++XO+@@+XO++XO+++X+.X$$$",
"$$$XX@@+..++++..++..++@+X+X$$$",
"$$$#X@@++@@+@+++++++@+@+++X$$$",
"$$$$X@@@+@@+@++@++++++++O+X##$",
"$$$$X@@@+XO+@++@+@++@@++.+X$$$",
"    X@@@+X.++++X+@+++XO+++X   ",
"$$$$$X@@@+.+@++.O++++..@@+X$$$",
"$$$$$X@@@@+++++..+@@+X+++X$$$$",
"$$###XX@@@@+++@+++++@@++X###$$",
"$$$$$$XX@@@@@@@+@@@@@@+X$$$$$$",
"$$$$$$$XXX@@@+@+@@@@XXXX$$$$$$",
"$$$$ooooooXXXXXXXXXXXoooooo##$",
"$$$oooooooooooooooooooooo$$$$$",
"$$$$$$$$$$$##oooooo$#$####$$$$",
"$$$$$$$$$$$$$$$$ $$$$$$$$$$$$$",
"                              "
};
