/* XPM */
static char *d618748dc5054915ba420ace3fe50100wJvSkt4Jq0W3FsE9[] = {
/* columns rows colors chars-per-pixel */
"64 64 10 1 ",
"  c black",
". c #422506",
"X c #592C00",
"o c #7C6959",
"O c #B95D00",
"+ c #D0883F",
"@ c #CE983D",
"# c #D18741",
"$ c #D0D0D0",
"% c white",
/* pixels */
"                                                                ",
"                                                                ",
"%%%%%%%%%%%%%%%%%%%%%%%%%%%%%%  %%%%%%%%%%%%%%%%%%%%%%%%%%%%%%%%",
"%%%%%%%%%%%%%%%%%%%%%%%%%%%%%%  %%%%%%%%%%%%%%%%%%%%%%%%%%%%%%%%",
"$$$$%%$$$%%%%%%%%%%%%%%%%%%%%%  %%%%%%%%%%%%%%%%%%%%%%%%%%%%%%%%",
"$$$$%%$$$%%%%%%%%%%%%%%%%%%%%%  %%%%%%%%%%%%%%%%%%%%%%%%%%%%%%%%",
"$$$$%%$$$%%%%%%%%$$$$$$$$$%%%%  %%$$$$$$$%%%%%%$$$$$$$$$$$%%$$$$",
"$$$$%%$$$%%%%%%%%$$$$$$$$$%%%%  %%$$$$$$$%%%%%%$$$$$$$$$$$%%$$$$",
"$$$$%%$$$%%%%%%%%$$$$$$$$$%%%%  %%$$$$$$$%%%%%%$$$$$$$$$$$%%$$$$",
"%%%%%%%%%%%%%%%$$$$$$$$XXXXXXXXXXXXXXXXXX..%%%%%%%%$$$$%%%%%%%%%",
"%%%%%%%%%%%%%%%$$$$$$$$XXXXXXXXXXXXXXXXXX..%%%%%%%%$$$$%%%%%%%%%",
"%%%%%%$$$$$$$$$%%%%%%XX###############@@@XX..%%%%%%%%%%%%%%%%%%%",
"%%%%%%$$$$$$$$$%%%%%%XX###############@@@XX..%%%%%%%%%%%%%%%%%%%",
"%%%%%%%%%%%%%%%%%XXXX#############XX#####@@XX..%%$$$$%%%%%%%%%%%",
"%%%%%%%%%%%%%%%%%XXXX#############XX#####@@XX..%%$$$$%%%%%%%%%%%",
"$$$$$$$$$$$$$$$XX#################XXXX###@@XX....%%%%$$$$$$$$$$$",
"$$$$$$$$$$$$$$$XX#################XXXX###@@XX....%%%%$$$$$$$$$$$",
"%%%%%%%%%%%%%XX###################....#####@@XX..%%%%%%%%%%%%%%%",
"%%%%%%%%%%%%%XX###################....#####@@XX..%%%%%%%%%%%%%%%",
"%%%%%%%%%%%XX##############################@@XX....%%%%%%%%%%%%%",
"%%%%%%%%%%%XX##############################@@XX....%%%%%%%%%%%%%",
"         XXXX########XXOOO############XXXOO##@@@@XX....         ",
"         XXXX########XXOOO############XXXOO##@@@@XX....         ",
"%%%%%%%%%XX##########.....############.....##....@@XX.....%%%%%%",
"%%%%%%%%%XX##########.....############.....##....@@XX.....%%%%%%",
"%%%%%%%%%XX##########.....############.....##....@@XX.....%%%%%%",
"%%%%%%%%%XX######################################..@@@@XXX%%%%%%",
"%%%%%%%%%XX######################################..@@@@XXX%%%%%%",
"$$$$$$XXXXX@@#################XX###################....XXX%%%%%%",
"$$$$$$XXXXX@@#################XX###################....XXX%%%%%%",
"$$%%%%XXXXX@@####XXOO##@@@@@##XXOO##++XXXOO######XX##..XXX%%%%%%",
"$$%%%%XXXXX@@####XXOO##@@@@@##XXOO##++XXXOO######XX##..XXX%%%%%%",
"%%%%%%XXXXX@@@@##....#########....####.....####@@##XX##XXX%%%%%%",
"%%%%%%XXXXX@@@@##....#########....####.....####@@##XX##XXX%%%%%%",
"%%%%%%$$$XX@@@@####@@@@###@@###############@@##@@######XXX%%%%%%",
"%%%%%%$$$XX@@@@####@@@@###@@###############@@##@@######XXX%%%%%%",
"%%%%%%%%%XX@@@@@@##@@@@###@@####@@#################OO##XXX$$$$%%",
"%%%%%%%%%XX@@@@@@##@@@@###@@####@@#################OO##XXX$$$$%%",
"%%%%%%%%%XX@@@@@@##XXOO###@@####@@##@@#####@@@@####..##XXX%%%%%%",
"%%%%%%%%%XX@@@@@@##XXOO###@@####@@##@@#####@@@@####..##XXX%%%%%%",
"%%%%%%%%%XX@@@@@@##XXOO###@@####@@##@@#####@@@@####..##XXX%%%%%%",
"         XX@@@@@@##XX..#########XX##@@#######XXOO######XXX      ",
"         XX@@@@@@##XX..#########XX##@@#######XXOO######XXX      ",
"%%%%%%%%%%%XX@@@@@@##..###@@####..OO#########....@@@@##XXX%%%%%%",
"%%%%%%%%%%%XX@@@@@@##..###@@####..OO#########....@@@@##XXX%%%%%%",
"%%%%%%%%%%%XX@@@@@@@@###########....##@@@@@##XX######XX%%%%%%%%%",
"%%%%%%%%%%%XX@@@@@@@@###########....##@@@@@##XX######XX%%%%%%%%%",
"%%%%$$$$$$$XXXX@@@@@@@@#######@@###########@@@@####XX$$$$$$$%%%%",
"%%%%$$$$$$$XXXX@@@@@@@@#######@@###########@@@@####XX$$$$$$$%%%%",
"%%%%%%%%%%%%%XXXX@@@@@@@@@@@@@@@##@@@@@@@@@@@@@##XX%%%%%%%%%%%%%",
"%%%%%%%%%%%%%XXXX@@@@@@@@@@@@@@@##@@@@@@@@@@@@@##XX%%%%%%%%%%%%%",
"%%%%%%%%%%%%%%%XXXXXX@@@@@@@##@@##@@@@@@@@@XXXXXXXX%%%%%%%%%%%%%",
"%%%%%%%%%%%%%%%XXXXXX@@@@@@@##@@##@@@@@@@@@XXXXXXXX%%%%%%%%%%%%%",
"%%%%%%%%%ooooooooooooXXXXXXXXXXXXXXXXXXXXXXXXooooooooooooo$$$$%%",
"%%%%%%%%%ooooooooooooXXXXXXXXXXXXXXXXXXXXXXXXooooooooooooo$$$$%%",
"%%%%%%ooooooooooooooooooooooooooooooooooooooooooooooo%%%%%%%%%%%",
"%%%%%%ooooooooooooooooooooooooooooooooooooooooooooooo%%%%%%%%%%%",
"%%%%%%ooooooooooooooooooooooooooooooooooooooooooooooo%%%%%%%%%%%",
"%%%%%%%%%%%%%%%%%%%%%%%$$$$$ooooooooooooo%%$$%%$$$$$$$$%%%%%%%%%",
"%%%%%%%%%%%%%%%%%%%%%%%$$$$$ooooooooooooo%%$$%%$$$$$$$$%%%%%%%%%",
"%%%%%%%%%%%%%%%%%%%%%%%%%%%%%%%%%%  %%%%%%%%%%%%%%%%%%%%%%%%%%%%",
"%%%%%%%%%%%%%%%%%%%%%%%%%%%%%%%%%%  %%%%%%%%%%%%%%%%%%%%%%%%%%%%",
"                                                                ",
"                                                                "
};
