/* XPM */
static char *_253bd7178b84bfdf755c3cf6190f8f6tfNByZmWhkpaClSM[] = {
/* columns rows colors chars-per-pixel */
"64 64 7 1 ",
"  c black",
". c #030305",
"X c #420476",
"o c #5E0BA1",
"O c #600EA2",
"+ c #D0D0D0",
"@ c white",
/* pixels */
"                                                                ",
"                                                                ",
"@@@@@@@@@@@@@@@@@@@@@@@@@@@@@@  @@@@@@@@@@@@@@@@@@@@@@@@@@@@@@@@",
"@@@@@@@@@@@@@@@@@@@@@@@@@@@@@@  @@@@@@@@@@@@@@@@@@@@@@@@@@@@@@@@",
"++++@@+++@@@@@@@@@@@@@@@@@@@@@  @@@@@@@@@@@@@@@@@@@@@@@@@@@@@@@@",
"++++@@+++@@@@@@@@@@@@@@@@@@@@@  @@@@@@@@@@@@@@@@@@@@@@@@@@@@@@@@",
"++++@@+++@@@@@@@@++++++.....@@  @@++.....@@@@@@+++++++++++@@++++",
"++++@@+++@@@@@@@@++++++.....@@  @@++.....@@@@@@+++++++++++@@++++",
"++++@@+++@@@@@@@@++++++.....@@  @@++.....@@@@@@+++++++++++@@++++",
"@@@@@@@@@@@@@@@++++++..oooXXXX  @@..OOooo..@@@@@@@@++++@@@@@@@@@",
"@@@@@@@@@@@@@@@++++++..oooXXXX  @@..OOooo..@@@@@@@@++++@@@@@@@@@",
"@@@@@@+++++++++....  ..XXXXXXX  ..OOooOOO..    ....  @@@@@@@@@@@",
"@@@@@@+++++++++....  ..XXXXXXX  ..OOooOOO..    ....  @@@@@@@@@@@",
"@@@@@@@@@......XXXXOOOOooooooooooooooooooooooooXXXX..@@@@@@@@@@@",
"@@@@@@@@@......XXXXOOOOooooooooooooooooooooooooXXXX..@@@@@@@@@@@",
"++++++.....ooooXXXXooooooooooooooooooooooooOO........+++++++++++",
"++++++.....ooooXXXXooooooooooooooooooooooooOO........+++++++++++",
"@@@@..OOOooXXoo  oooooooooooooooooooooooooooooooooo..@@@@@@@@@@@",
"@@@@..OOOooXXoo  oooooooooooooooooooooooooooooooooo..@@@@@@@@@@@",
"@@@@@@.........ooooooooooooooooooooooooooooooooXXXXOO..@@@@@@@@@",
"@@@@@@.........ooooooooooooooooooooooooooooooooXXXXOO..@@@@@@@@@",
"             oooooooo.......oooooooooo...  ..oooo               ",
"             oooooooo.......oooooooooo...  ..oooo               ",
"@@@@@@...  XXXXoooo..@@@@@@@..oooooo..@@@@@@@..oooo.......@@@@@@",
"@@@@@@...  XXXXoooo..@@@@@@@..oooooo..@@@@@@@..oooo.......@@@@@@",
"@@@@@@...  XXXXoooo..@@@@@@@..oooooo..@@@@@@@..oooo.......@@@@@@",
"@@@@@@.....XXXXoo..@@@@@@@@@@@..oo..@@@@@@@@@@@..ooXXXX...@@@@@@",
"@@@@@@.....XXXXoo..@@@@@@@@@@@..oo..@@@@@@@@@@@..ooXXXX...@@@@@@",
"++++++...XXXXoooo..@@.....@@@@..oo .@@@@@....@@  ooXXXXXXX..@@@@",
"++++++...XXXXoooo..@@.....@@@@..oo .@@@@@....@@  ooXXXXXXX..@@@@",
"++@@@@...oo  oooo  @@@@ ..@@@@..oo..@@@@@..@@@@  oooo.....@@@@@@",
"++@@@@...oo  oooo  @@@@   @@@@..oo..@@@@@..@@@@  oooo.....@@@@@@",
"@@@@@@@@@....oooo  @@@@@@@@@@@..oooo..@@@@@@@@@..ooooOO.....@@@@",
"@@@@@@@@@....oooo  @@@@@@@@@@@..oooo..@@@@@@@@@..ooooOO.....@@@@",
"@@@@@@+++++..oooooo..@@@@@@@..oooooo.....@@@@  ooooooXXooo....@@",
"@@@@@@+++++..oooooo..@@@@@@@..oooooo.....@@@@  ooooooXXooo....@@",
"@@@@@@@@@....oooooooo     ..oooooooooo.......oooooooo..XXXXX..@@",
"@@@@@@@@@....oooooooo     ..oooooooooo.......oooooooo..XXXXX..@@",
"@@@@@@@@@..oooooooooooooooooooooooooooooooooooooooooo.........@@",
"@@@@@@@@@..oooooooooooooooooooooooooooooooooooooooooo.........@@",
"@@@@@@@@@..oooooooooooooooooooooooooooooooooooooooooo.........@@",
"         ..XXoooooooooooooooooooooooooooooooooooooo             ",
"         ..XXoooooooooooooooooooooooooooooooooooooo             ",
"@@@@@@...XXXX..ooooooooooooooooooooooooooooooooooXXXX.....@@@@@@",
"@@@@@@...XXXX..ooooooooooooooooooooooooooooooooooXXXX.....@@@@@@",
"@@@@@@.....  ..XXoooooooooooooooooooXXoooooooooooooooXX...@@@@@@",
"@@@@@@.....  ..XXoooooooooooooooooooXXoooooooooooooooXX...@@@@@@",
"@@@@+++++++..OOooooooXXXXXXXoooooooooooooooXXXXoo....XX...++@@@@",
"@@@@+++++++..OOooooooXXXXXXXoooooooooooooooXXXXoo....XX...++@@@@",
"@@@@@@@@@@@..XXooOOXXoooooooooooXXXXooXXXooXXooXX..  ..   @@@@@@",
"@@@@@@@@@@@..XXooOOXXoooooooooooXXXXooXXXooXXooXX..  ..   @@@@@@",
"@@@@@@@@@@@  XXXX..XXXXXXXXXXXXXXXXXooXXXooOOooXXXX..@@@@@@@@@@@",
"@@@@@@@@@@@  XXXX..XXXXXXXXXXXXXXXXXooXXXooOOooXXXX..@@@@@@@@@@@",
"@@@@@@@@@@@  XXXX.........XXXXXXXXooXXoooXX....XXXX..+++++++++@@",
"@@@@@@@@@@@  XXXX.........XXXXXXXXooXXoooXX....XXXX..+++++++++@@",
"@@@@@@+++++......++++@@...    ..XXooXX.....  ..XXXX..@@@@@@@@@@@",
"@@@@@@+++++......++++@@...    ..XXooXX.....  ..XXXX..@@@@@@@@@@@",
"@@@@@@+++++......++++@@...    ..XXooXX.....  ..XXXX..@@@@@@@@@@@",
"@@@@@@@@@@@@@@@@@@@@@@@+++++++++..    +++@@++@@....  ++@@@@@@@@@",
"@@@@@@@@@@@@@@@@@@@@@@@+++++++++..    +++@@++@@....  ++@@@@@@@@@",
"@@@@@@@@@@@@@@@@@@@@@@@@@@@@@@@@@@  @@@@@@@@@@@@@@@@@@@@@@@@@@@@",
"@@@@@@@@@@@@@@@@@@@@@@@@@@@@@@@@@@  @@@@@@@@@@@@@@@@@@@@@@@@@@@@",
"                                                                ",
"                                                                "
};
