/* XPM */
static char *b1b85c2c5be948bda51626902961d1699UC5HvrswizT5t9b[] = {
/* columns rows colors chars-per-pixel */
"30 30 7 1 ",
"  c black",
". c #030305",
"X c #3C0A71",
"o c #56149B",
"O c #58169C",
"+ c #D0D0D0",
"@ c white",
/* pixels */
"                              ",
"@@@@@@@@@@@@@@ @@@@@@@@@@@@@@@",
"++@+@@@@@@@@@@ @@@@@@@@@@@@@@@",
"++@+@@@@+++..@ @+..@@@+++++@++",
"@@@@@@@+++.oXX @.Oo.@@@@++@@@@",
"@@@++++.. .XXX .OoO.  .. @@@@@",
"@@@@...XXOOoooooooooooXX.@@@@@",
"+++..ooXXoooooooooooO....+++++",
"@@.OoXo oooooooooooooooo.@@@@@",
"@@@....oooooooooooooooXXO.@@@@",
"      oooo...ooooo. .oo       ",
"@@@. XXoo.@@@.ooo.@@@.oo...@@@",
"@@@..XXo.@@@@@.o.@@@@@.oXX.@@@",
"+++.XXoo.@..@@.o.@@..@ oXXX.@@",
"+@@.o oo @@.@@.o.@@.@@ oo..@@@",
"@@@@..oo @@@@@.oo.@@@@.ooO..@@",
"@@@++.ooo.@@@.ooo..@@ oooXo..@",
"@@@@..oooo  .ooooo...oooo.XX.@",
"@@@@.oooooooooooooooooooo....@",
"    .Xoooooooooooooooooo      ",
"@@@.XX.ooooooooooooooooXX..@@@",
"@@@.. .XoooooooooXoooooooX.@@@",
"@@+++.OoooXXXoooooooXXo..X.+@@",
"@@@@@.XoOXoooooXXoXoXoX. . @@@",
"@@@@@ XX.XXXXXXXXoXoOoXX.@@@@@",
"@@@@@ XX....XXXXoXoX..XX.++++@",
"@@@++...++@.  .XoX.. .XX.@@@@@",
"@@@@@@@@@@@++++.  +@+@.. +@@@@",
"@@@@@@@@@@@@@@@@ @@@@@@@@@@@@@",
"                              "
};
