/* XPM */
static char *df1086beb0a94e559ca19c49c28204deukjgcIurUJsIhgWL[] = {
/* columns rows colors chars-per-pixel */
"64 64 9 1 ",
"  c black",
". c #351304",
"X c #511C02",
"o c #531F04",
"O c #F39A00",
"+ c #F59B00",
"@ c #FFCB61",
"# c #FFCC62",
"$ c #8B8481",
/* pixels */
"                                                                ",
"                                                                ",
"                                                                ",
"                                                                ",
"    +++++++++++++  +++++++++++++  +++++++++++++  +++++++++++    ",
"    +++++++++++++  +++++++++++++  +++++++++++++  +++++++++++    ",
"    ++XXXXXXXXXXX  XX..XXXXXXXXX  XXXXXXXXXXXXX  XXXXXXXXX..    ",
"    ++XXXXXXXXXXX  XX..XXXXXXXXX  XXXXXXXXXXXXX  XXXXXXXXX..    ",
"    ++XXXXXXXXXXX  XX..XXXXXXXXX  XXXXXXXXXXXXX  XXXXXXXXX..    ",
"    ++XXXXXXXXXXX  XX..XXXXXXXXX  XXXX...XXXXXX  XX..XXXXX..    ",
"    ++XXXXXXXXXXX  XX..XXXXXXXXX  XXXX...XXXXXX  XX..XXXXX..    ",
"    ++XXXXXXXXXXX  XX..XXXXXXXXX  XX.....XXXXXX  XX..XXXXX..    ",
"    ++XXXXXXXXXXX  XX..XXXXXXXXX  XX.....XXXXXX  XX..XXXXX..    ",
"    ++XXX..XXXXXX  XX..XXXXXXXXX  XX.....XXXXXX  XX..XXooo..    ",
"    ++XXX..XXXXXX  XX..XXXXXXXXX  XX.....XXXXXX  XX..XXooo..    ",
"    ++XXX..XXXXXX  XX.....XXXXXX  XXXX...XXXXXX  XX..XXooo..    ",
"    ++XXX..XXXXXX  XX.....XXXXXX  XXXX...XXXXXX  XX..XXooo..    ",
"    ++XXX..XXXXXX  XX.....XXXXXX  XXXX...XXXXXX  XX..XXooo..    ",
"    ++XXX..XXXXXX  XX.....XXXXXX  XXXX...XXXXXX  XX..XXooo..    ",
"    ++XXX..XXXXXX  XX.....XXXXXX  XXXX...XXXXXX  XX....XXX..    ",
"    ++XXX..XXXXXX  XX.....XXXXXX  XXXX...XXXXXX  XX....XXX..    ",
"    ++XXX..XXXXXX  XX..XXXXXXXXX  XXXX...XXXXXX  XX..XXXXX..    ",
"    ++XXX..XXXXXX  XX..XXXXXXXXX  XXXX...XXXXXX  XX..XXXXX..    ",
"    ++XXX..XXXXXX  XXXXXXXXX..XX  XXXXXXXXX..XX  XX..XXXXX..    ",
"    ++XXX..XXXXXX  XXXXXXXXX..XX  XXXXXXXXX..XX  XX..XXXXX..    ",
"    ++XXX..XXXXXX  XXXXXXXXX..XX  XXXXXXXXX..XX  XX..XXXXX..    ",
"    ++XXX..XXXXXX  XXXXXXXXX....  XXXXXXXXX..XX  XXXXXXXXX..    ",
"    ++XXX..XXXXXX  XXXXXXXXX....  XXXXXXXXX..XX  XXXXXXXXX..    ",
"    ++XXX..XXXXXX  XXXXXXXXX....  XXXXXXXXX....  XXXXXXXXX..    ",
"    ++XXX..XXXXXX  XXXXXXXXX....  XXXXXXXXX....  XXXXXXXXX..    ",
"    ++XXX..XXXXXX  XXXXXXXXX....  XXXXXXXXX....  XXXX..XXX..    ",
"    ++XXX..XXXXXX  XXXXXXXXX....  XXXXXXXXX....  XXXX..XXX..    ",
"    ++XXX....XXXX  XXXXXXXXX....  XXXXXXXXX..XX  XXXX..XXX..    ",
"    ++XXX....XXXX  XXXXXXXXX....  XXXXXXXXX..XX  XXXX..XXX..    ",
"    ++XXX....XXXX  XX                        XX  XXXX..XXX..    ",
"    ++XXX....XXXX  XX                        XX  XXXX..XXX..    ",
"    ++XXX....XXXX  XX  @@@++++++++++++@@@@@  XX  XXXX..XXX..    ",
"    ++XXX....XXXX  XX  @@@++++++++++++@@@@@  XX  XXXX..XXX..    ",
"    ++XXX..XXXXXX  XX  +++++++      ++OOO@@  XX  XXXX..XXX..    ",
"    ++XXX..XXXXXX  XX  +++++++      ++OOO@@  XX  XXXX..XXX..    ",
"    ++XXX..XXXXXX  XX  +++++++      ++OOO@@  XX  XXXX..XXX..    ",
"    ++XXX..XXXXXX  XX  +++++          +++@@  XX  XXXX..XXX..    ",
"    ++XXX..XXXXXX  XX  +++++          +++@@  XX  XXXX..XXX..    ",
"    ++XXX..XX..XX  XX  +++    ++++++     ++  XX  XXXX..XXX..    ",
"    ++XXX..XX..XX  XX  +++    ++++++     ++  XX  XXXX..XXX..    ",
"    ++XXX..XX..XX  XX  @@@               ++  XX  XX....XXX..    ",
"    ++XXX..XX..XX  XX  @@@               ++  XX  XX....XXX..    ",
"    ++XXX..XX..XX  XX  ###@@    $$    OOO@@  XX  XX....XXX..    ",
"    ++XXX..XX..XX  XX  ###@@    $$    OOO@@  XX  XX....XXX..    ",
"    ++XXX..XX..XX  XX                        XX  XXXX..XXX..    ",
"    ++XXX..XX..XX  XX                        XX  XXXX..XXX..    ",
"    ++XXX..XX..XX  XXXX...XXXXXX  XXXXXXXXXXXXX  XXXXXXXXX..    ",
"    ++XXX..XX..XX  XXXX...XXXXXX  XXXXXXXXXXXXX  XXXXXXXXX..    ",
"    ++XXXXXXX..XX  XXXX...XXXXXX  XXXX...XXXXXX  XXXX.......    ",
"    ++XXXXXXX..XX  XXXX...XXXXXX  XXXX...XXXXXX  XXXX.......    ",
"    ++XXXXXXX....  XXXX...XXoooo  XXXX...XXXXXX  XXoo.......    ",
"    ++XXXXXXX....  XXXX...XXoooo  XXXX...XXXXXX  XXoo.......    ",
"    ++XXXXXXX....  XXXX...XXoooo  XXXX...XXXXXX  XXoo.......    ",
"    ++...........  .............  .............  ...........    ",
"    ++...........  .............  .............  ...........    ",
"                                                                ",
"                                                                ",
"                                                                ",
"                                                                "
};
