/* XPM */
static char *_185bafd09be432bd11d92789d5b011a2n9LQwI7M9CpQCFo[] = {
/* columns rows colors chars-per-pixel */
"30 30 8 1 ",
"  c black",
". c #311507",
"X c #4B1F09",
"o c #4D220C",
"O c #E79E00",
"+ c #E89F00",
"@ c #F7CD72",
"# c #8A8481",
/* pixels */
"                              ",
"                              ",
"  +++++O OO+OOO O+OOOO ++++O  ",
"  +XXXXX X.XXXX XXXXXX XXXX.  ",
"  +XXXXX X.XXXX XX.XXX X.XX.  ",
"  +XXXXX X.XXXX X..XXX X.XX.  ",
"  +X.XXX X.XXXX X..XXX X.Xo.  ",
"  +X.XXX X..XXX XX.XXX X.Xo.  ",
"  +X.XXX X..XXX XX.XXX X.Xo.  ",
"  +X.XXX X..XXX XX.XXX X..X.  ",
"  +X.XXX X.XXXX XX.XXX X.XX.  ",
"  +X.XXX XXXX.X XXXX.X X.XX.  ",
"  +X.XXX XXXX.. XXXX.X XXXX.  ",
"  +X.XXX XXXX.. XXXX.. XXXX.  ",
"  +X.XXX XXXX.. XXXX.. XX.X.  ",
"  +X..XX XXXX.. XXXX.X XX.X.  ",
"  +X..XX X           X XX.X.  ",
"  +X..XX X @++++++@@ X XX.X.  ",
"  +X.XXX X +++   +O@ X XX.X.  ",
"  +X.XXX X ++     +@ X XX.X.  ",
"  +X.X.X X +  +++  + X XX.X.  ",
"  OX.X.X X @       + X X..X.  ",
"  +X.X.X X @@  #  O@ X X..X.  ",
"  +X.X.X X           X XX.X.  ",
"  +X.X.X XX.XXX XXXXXX XXXX.  ",
"  +XXX.X XX.XXX XX.XXX XX...  ",
"  +XXX.. XX.Xoo XX.XXX Xo...  ",
"  O..... ...... ...... .....  ",
"                              ",
"                              "
};
