/* XPM */
static char *_cef6c7e40944012b6c60ef93d7f3adagHwhms47BhEt1i0a[] = {
/* columns rows colors chars-per-pixel */
"64 64 46 1 ",
"  c black",
". c #040404",
"X c gray3",
"o c #131313",
"O c gray9",
"+ c gray12",
"@ c gray13",
"# c gray14",
"$ c gray17",
"% c #2F2F2F",
"& c gray20",
"* c #343434",
"= c gray23",
"- c #3E3E3E",
"; c #434343",
": c gray27",
"> c gray44",
", c #747474",
"< c gray47",
"1 c gray50",
"2 c gray51",
"3 c #848484",
"4 c #8D8D8D",
"5 c gray60",
"6 c gray66",
"7 c #AEAEAE",
"8 c gray69",
"9 c #B6B6B6",
"0 c #B9B9B9",
"q c gray",
"w c #C3C3C3",
"e c #C5C5C5",
"r c #CBCBCB",
"t c #CDCDCD",
"y c LightGray",
"u c #D5D5D5",
"i c #D8D8D8",
"p c gainsboro",
"a c #E1E1E1",
"s c #E4E4E4",
"d c gray91",
"f c #ECECEC",
"g c #F1F1F1",
"h c gray97",
"j c #F9F9F9",
"k c #FDFDFD",
/* pixels */
"         .                       .                     ..       ",
"@@@+@@@@@#@@@@@@@@@@@@@@@@@@@O X+#@@@@@@@@@@@@@@@@@@@@+##@@@@@@@",
"wwwqwwwwqqqwwwqwwwwqqqwwwwwww4+O69qwwqwwwwwqqwwwwqqwwwqwwwwwwqww",
"kkjhkkkjjjjkkkkkkkkjjjkkkkkkkq+#pjjkkkkkkkkkkkkkkjjkkkjkkkkkkkkk",
"aapphkdpdkkkkkkkkkkkkkkkjjkkjq#$akkkkkkkkkkkkkkkkkkkkkkjjjkkkkkk",
"yyyugjdtdkkkkkkkkkjjjjjhhjkkjq#%skkhhjjjkkkkkkkkjjjjjjjjhjkkkjjj",
"yyyugjdydkkjjkjkkaaddsassgkkkw@#pjdddddsfkkkkkksdddsaddsagkjssdd",
"ttyugjdyfkkjjjjkjuyyyttyudkkkw+@pjpuuyytskkkkkhutyyttttyusjgyyyy",
"sssfjkfsgkkkkkjdattttttyydjkkw@@ikdddddsfjkkkkkddddutytidhkjssdd",
"kkkkkjjkkkkkkkhytttrrtuyrajkkw@#ikjhkkkkjjkkkkkkkkkayytskkkkjkkk",
"kkkkkkhfgggffffppppiupappdjkkw@#akjjkkkkkkkkkkkkkkksapidjkkkkkkk",
"kkkkkjsyyiutttuhkkjhhjkkjjkkkw@#pkkkjjkkkkkkkkkkkkkjjkjjhjkkkkkk",
"kkkkkkfppapiiuajkkkkkkkkkkkkkw@#ikkkgfgggghkkkkkkfgffjkjhjkkkkkk",
"kkkkkkkhjjjjjjkkkkkkkkkkkkkkkw@@ajkkauyyyypjjkkkjuytyfkkkkkkkkkk",
"jjjjjjjjjhjjjjjjjjjjjkkkjjkkkq@#akkkauyyyyajkkkkjpyyyfkjjjjjjjkk",
"uuuuuuiiuyyuuiuuuuuupgkkkkkkkq@#akkkjhhhhjjkkkkkkjhjhpuytyiiyuii",
"uuuuuuuuuuyuuuuuuuuiigkkkkkkkq@@skkkkkkkkkkkkkkkkkkkkayyyuiiuuii",
"hhjjjjjjhjjhhjjjjjjjjkkkkkkkkq@@ajkkkkkkkkkkkkkkkkkkkjjhhjkjhjjj",
"kkkkkkkkkkkkkkkkkkkkkkkkkkkkkw@@ajkkkkkkkkkkkkkkkkkkkkkkkkkkkkkk",
"kkkjkkkkkkkkkkkkkkkkkkkkkkkkkw@$skkkkkkkkkkkkkkkkkkkkkkkkkkkkkkk",
"fffdfffffffffffffffffffffffff8+#ifffffggggffffgfgfgfffffffffffff",
";;;;;;;;;-;;;;;;;;;;;;;::;-;;%X.=;;;;;;;;;;;;;;;;;;;;;;;;;;;;;;;",
"                      ....  .                                   ",
"22222233222333333333<# -3322332222222222222222222222222222222222",
"kkkkkkkkkkjkkkkkkkkkg; 3kjkkkkkkkkkkkkkkkkkkkkkkkkkkkkkkkkkjjkkk",
"kkkkkkkkkkkjjkjjjjkkf; 3kkkkkkkkjjjkkkkkkkkkkkkkkkkkkkkkkkjjjjkk",
"jjkkkkkkkkkkkkkjjkkkf- 3kkjkkkkkjjkkkkkkkkkkkkkkkkkkkkkkjjjkkkkk",
"ggffggggghgffgghjkkkf- 3kkkkkkkkfdggggggggggggggggggggggghjjkkkk",
"ppyyyuttyiuyyyujkkkkg- 3kjkkjkkjutyuuuuuuuuuuuuuuuyyyyyiadhhkkkk",
"uuiuiiuuipiiiiijkkkkf; 3kkkkkkkjiuiiiiiiiiiiiiiiiiiuuuupsfhjkkkk",
"ryfjjhjjhhhhhjkjkkkkf- 3kjkjjkjjjjjjjjjjjjjjjjjjjjjjjhhhjjkkkkkk",
"tygkkkkkjhhjkkkkkkkkf- 2khhjjjjjkkkkkkkkkkkkkkkkkkkkkkkkjkkkkkkk",
"jjkkkkkkduakkkkkkkkkg- ,uyyyypjkkkkkkkkkkkkkkkkkkkkkkkkkkkkkkkkk",
"kkkkkkjhatpjjjkkkkkkf- >iuuuuijkkkkkkjjjjjjjjjkjkkkkkkkkkkkkkkkk",
"kkkkkkdiuyyiiuijkkkdy* 1hghgggkkkkkkaiiiiiiiiuihkkkkkkkkkkkkkkkk",
"kkkkkkdyyyuuutujkkkst& 3kjkkjjkkkkkkpyuuyyyuytyjkkkkjjjkkkjkkkkk",
"kkkkkkhgggfggggjkkkga; 3kjkkkkkkkkkkhgggggggfggjkjjsppappppiupjk",
"kkkkkkkkkkkjjkkkkkkkd-.3kkkkkkkkkkkkkkkkkkkkkkkkkjhpyuiuyyyyruhj",
"kkkkkjjjkkkjjkkkjjkjd; 3kjkkkjjjjkkjkjkkkkjkkkkjjjjdsdddsssssdjj",
"jjkkkkkkkkkkkkkkkkjkg; 3kjjjjjhhkkjjkkkkkkkjjkkjjjjjjjjjkkjkkkkk",
"22333222333222222222<# =2322322223222222222222222233332222223333",
"   .                        ..X.   .             ..         .   ",
";;;:;;;;;;;;;;;;;;;;;;;;;;;;;;::;&O.*;;;;;;;;;--;;;;;;;;;;;;::;;",
"fffffffffffffgfffffggfffffffffffgt-o7ffffffggfffffffffffggfgggff",
"kkkkkkkkkkkkkkkkkkkkkkkkkkkkkkkkkp;O0kkkkkkkkkkkkkkkkkkkkkkkkkkk",
"kkkkkkkkkkkkkjjkkkkjjkkkjkkkkkkkkp;O0kkkkkkkkkkkkkkkkkkkjkkkkkkk",
"kkkkjhjjjkjjjhjjjjjjjjjjhkkkjkkkkp;Oqkjkjjjjjjkkkjjjjjkjjjjjkkkk",
"kkkjauuuiiiuuiuuuuuiiiiuyskkhjkkji-o0jjkfuippiiggiuuuuiiiiiakkkj",
"kkkkaiuuuiiuuiiuuuuiiiiuyskkjjkkji;O0jjkduippuigguuuuuiiiiiskkjj",
"kkkkjjjjjjjjjjkjjjjjjjhjjkjkkkkkkp;o0kkjhhjjjhjkkjhjjjkjjjjjkkjj",
"kkkkkkkkkkkkkkkkkkkjhjjjjjjjkkkkkp-o0kkjkkkjjkkkkkkkkkkkjjkkkkkk",
"kkkkkkkkkkkkkkkkkkksppppppiskkkkkp-Oqkkkjkkkkjkkjkkkkkjkkkkkkkkk",
"kkkkkkkkkkkkkkkkkkjpyyuuuyypjkkkkp-Oqkkkjjjjjjhhjjjjjjhjjjjjjkkk",
"kkkkkkkkkkkkkkkkkkkhgffgggggkkkkkp-Oqkkjdipippapppppppppppppiajk",
"kkkkkkkkkkkkkkkkkkkkkjhjjjkkkkkkka-o0kkksttrtuuyyuyttyyyttytrujk",
"kkkkjjgddasddddssddssgjkkkkkkkkkkp-o0kkkfssssssdssssssdssssssdjk",
"kkkkjhsutttuuuurtyuttfkkkkkkkkkkji;O0kjhkkkkkjjkkjjkjkkkkkkkkkkk",
"kkkkjjhfdssddddsaddddhkgssssssssdr-O0kfdgkhdfjhdsasssssgkkkkkkjj",
"kkkkjkkkjjjjjjjjjjjjjkkayyyyyyyyu9*O0jaudkgiahhuyuiuuyrakkkkkkhh",
"kkkkkkkkkkkkkkkkkkkkkkkdiiiiiiiiiw=O0kdafkgpsjhpiipppppfkjkkkkhh",
"kkkkkkkkkkkkkkkkkkkjjjkkkkkjghkkki;O0jjjjkkhjkkjjjjjjjkkkjjkkkjj",
"wwwwwwwwwwwwwwwwweeqqqwwwewqqqwww6*X5wqqqqwwqwwqqwwwwwwwwwwwwwww",
"@@@@@@@@@@@@@@@@@##@@##@##@@##@@++X O@@@@@@++@@@@@##$@@@@#$$@@$$",
"                 ..  ...    ..      .              .X    XXX  XX"
};
