/* XPM */
static char *_0f7f4e517d5421a8950a93199f89194JjfxkK4KD37Tm0Ep[] = {
/* columns rows colors chars-per-pixel */
"30 30 3 1 ",
"  c black",
". c #D0D0D0",
"X c white",
/* pixels */
"                              ",
"XXXXXXXXXXXXXX XXXXXXXXXXXXXXX",
"..X.XXXXXXXXXX XXXXXXXXXXXXXXX",
"..X.XXXX....XX X...XXX.....X..",
"XXXXXXX.....XX XXXXXXXXX..XXXX",
"XXX....XXXXXXX XXXXXXXXXXXXXXX",
"XXXXXXXXXXXXXX XX...XXX..XXXXX",
"..........XXXX XXXXXXXXXX.....",
"XXXXXXXXXXXXXX XXXXXXXXXXXXXXX",
"XXXXXXXXXXXXXX XXXXXXXXXXXXXXX",
"                              ",
"XXXXXXXXXX XXXXXXXXXXXXXXXXXXX",
"XXXXXXXXXX XXXXXXXXXXXXXXXXXXX",
".......XXX XXXX............XXX",
".XXXXXXXXX XXXXXXXXXXXXXXXXXXX",
"XXXX.XXXXX ...XXXXXXXXXXXXXXXX",
"XXX....XX. XXXXXX.....XXXXXXXX",
"XXXXXXXXXX XXXXXXXXXXXXX.....X",
"XXXXXXXXXX XXXXXXXXXXXXXXXXXXX",
"                              ",
"XXXXXXXXXXXXXXXX XXXXXXXXXXXXX",
"XXXXXXXXXXXXXXXX XXXXXXXXXXXXX",
"XX..........XXXX XX...X.....XX",
"XXXXXXXXXXXXXXXX XXXXXXXXXXXXX",
"XXXXXXXXX....XXX XXXXXXXXXXXXX",
"XXXXXXXXXXXXXXXX XX..........X",
"XXX.......XXXXXX XXXXXXXXXXXXX",
"XXXXXXXXXXX..... X.X.X....XXXX",
"XXXXXXXXXXXXXXXX XXXXXXXXXXXXX",
"                              "
};
