/* XPM */
static char *_a68aea633ea4981bfcc8171f880307d3FDhjVm1JH3MmipI[] = {
/* columns rows colors chars-per-pixel */
"64 64 8 1 ",
"  c black",
". c #040404",
"X c #2D2D2D",
"o c #353535",
"O c #B4B4B4",
"+ c #D0D0D0",
"@ c #EAEAEA",
"# c white",
/* pixels */
"                                                                ",
"                                                                ",
"##############################  ################################",
"##############################  ################################",
"++++##+++#####################  ################################",
"++++##+++#####################  ################################",
"++++##+++########+++++++++####  ##+++++++######+++++++++++##++++",
"++++##+++########+++++++++####  ##+++++++######+++++++++++##++++",
"++++##+++########+++++++++####  ##+++++++######+++++++++++##++++",
"###############+++++++++++            #############++++#########",
"###############+++++++++++            #############++++#########",
"######+++++++++########   ############   #######################",
"######+++++++++########   ############   #######################",
"#####################  ##################  ######++++###########",
"#####################  ##################  ######++++###########",
"+++++++++++++++++++  ######################  ########+++++++++++",
"+++++++++++++++++++  ######################  ########+++++++++++",
"#################  ########################OO  #################",
"#################  ########################OO  #################",
"#################  ###############    #######  #################",
"#################  ###############    #######  #################",
"                   ####     ####         ##OO                   ",
"                   ####     ####         ##OO                   ",
"#################  ####     ####         ####  #################",
"#################  ####     ####         ####  #################",
"#################  ####     ####         ####  #################",
"#################  ###############    #####OO  #################",
"#################  ###############    #####OO  #################",
"+++++++++++++++  ############################  +++++++++++######",
"+++++++++++++++  ############################  +++++++++++######",
"++#############  ##########################OO  #################",
"++#############  ##########################OO  #################",
"#########++######    OOOOOOOOOOOOOOOOOOOOOO  ###################",
"#########++######    OOOOOOOOOOOOOOOOOOOOOO  ###################",
"######+++++++++####++                      ++++#################",
"######+++++++++####++                      ++++#################",
"#####################       ooXX..         ########+++++++++++##",
"#####################       ooXX..         ########+++++++++++##",
"#####################     ##########@@         #################",
"#####################     ##########@@         #################",
"#####################     ##########@@         #################",
"                          ############                          ",
"                          ############                          ",
"#####################       #############  ##    ###############",
"#####################       #############  ##    ###############",
"#####################       #############  #####################",
"#####################       #############  #####################",
"####+++++++++++++++  ######################  ++##+++++++++++####",
"####+++++++++++++++  ######################  ++##+++++++++++####",
"###################  ######################  ###################",
"###################  ######################  ###################",
"###################                          ###################",
"###################                          ###################",
"############################    ##    ###+++++++++++++++++++++##",
"############################    ##    ###+++++++++++++++++++++##",
"######+++++++++++++++#############    ##########################",
"######+++++++++++++++#############    ##########################",
"######+++++++++++++++#############    ##########################",
"#######################+++++++++++    +++##++##++++++++#########",
"#######################+++++++++++    +++##++##++++++++#########",
"##################################  ############################",
"##################################  ############################",
"                                                                ",
"                                                                "
};
