/* XPM */
static char *a713f938cfc94773db0a897a1f783970QpTaKhAPC1Oe9b8N[] = {
/* columns rows colors chars-per-pixel */
"64 64 8 1 ",
"  c black",
". c gray6",
"X c #9A9A9A",
"o c gray64",
"O c #B4B4B4",
"+ c gray74",
"@ c #D0D0D0",
"# c white",
/* pixels */
"                                                                ",
"                                                                ",
"##############################  ################################",
"##############################  ################################",
"@@@@##@@@#####################  ################################",
"@@@@##@@@#####################  ################################",
"@@@@##@@@########@@@@@@@@@####  ##@@@@@@@######@@@@@@@@@@@##@@@@",
"@@@@##@@@########@@@@@@@@@####  ##@@@@@@@######@@@@@@@@@@@##@@@@",
"@@@@##@@@########@@@@@@@@@####  ##@@@@@@@######@@@@@@@@@@@##@@@@",
"###############@@@@@@@@@@@            #############@@@@#########",
"###############@@@@@@@@@@@            #############@@@@#########",
"######@@@@@@@@@########   ############   #######################",
"######@@@@@@@@@########   ############   #######################",
"#####################  ##################  ######@@@@###########",
"#####################  ##################  ######@@@@###########",
"@@@@@@@@@@@@@@@@@@@  ######################  ########@@@@@@@@@@@",
"@@@@@@@@@@@@@@@@@@@  ######################  ########@@@@@@@@@@@",
"#################  ########################OO  #################",
"#################  ########################OO  #################",
"#################  ###############    #######  #################",
"#################  ###############    #######  #################",
"                   ####     ####         ##OO                   ",
"                   ####     ####         ##OO                   ",
"#################  ####     ####         ####  #################",
"#################  ####     ####         ####  #################",
"#################  ####     ####         ####  #################",
"#################  ###############    #####OO  #################",
"#################  ###############    #####OO  #################",
"@@@@@@@@@@@@@@@  ############################  @@@@@@@@@@@######",
"@@@@@@@@@@@@@@@  ############################  @@@@@@@@@@@######",
"@@#############  ##########################OO  #################",
"@@#############  ##########################OO  #################",
"#########@@######    OOOOOOOOOOOOOOOOOOOOOO  ###################",
"#########@@######    OOOOOOOOOOOOOOOOOOOOOO  ###################",
"######@@@@@@@@@####@@                      @@@@#################",
"######@@@@@@@@@####@@                      @@@@#################",
"#####################       XXooOO++       ########@@@@@@@@@@@##",
"#####################       XXooOO++       ########@@@@@@@@@@@##",
"#################         ############     #####################",
"#################         ############     #####################",
"#################         ############     #####################",
"                          ############                          ",
"                          ############                          ",
"#####################  ###############     #####################",
"#####################  ###############     #####################",
"#####################  #############       #####################",
"#####################  #############       #####################",
"####@@@@@@@@@@@@@@@  #################       @@##@@@@@@@@@@@####",
"####@@@@@@@@@@@@@@@  #################       @@##@@@@@@@@@@@####",
"###################..######################  ###################",
"###################..######################  ###################",
"###################                          ###################",
"###################                          ###################",
"############################    ##    ###@@@@@@@@@@@@@@@@@@@@@##",
"############################    ##    ###@@@@@@@@@@@@@@@@@@@@@##",
"######@@@@@@@@@@@@@@@#######    ##  ############################",
"######@@@@@@@@@@@@@@@#######    ##  ############################",
"######@@@@@@@@@@@@@@@#######    ##  ############################",
"#######################@@@@@    @@  ##@@@##@@##@@@@@@@@#########",
"#######################@@@@@    @@  ##@@@##@@##@@@@@@@@#########",
"##################################  ############################",
"##################################  ############################",
"                                                                ",
"                                                                "
};
