/* XPM */
static char *ab14eba95b494abbe2f2c7d12379971baHrcGcizZYU7JJ0J[] = {
/* columns rows colors chars-per-pixel */
"30 30 8 1 ",
"  c black",
". c #040404",
"X c #2D2D2D",
"o c #353535",
"O c #B4B4B4",
"+ c #D0D0D0",
"@ c #EAEAEA",
"# c white",
/* pixels */
"                              ",
"############## ###############",
"++#+########## ###############",
"++#+####++++## #+++###+++++#++",
"#######+++++      ######++####",
"###++++#### ###### ###########",
"########## ######## ###++#####",
"+++++++++ ########## ####+++++",
"######## ###########O ########",
"######## #######  ### ########",
"         ##  ##    #O         ",
"######## ##  ##    ## ########",
"######## #######  ##O ########",
"+++++++ ############# +++++###",
"+###### ############O ########",
"####+###  OOOOOOOOOO #########",
"###++++##+          ++########",
"##########   oX.    ####+++++#",
"##########  #####@    ########",
"            ######            ",
"##########   ###### #  #######",
"##########   ###### ##########",
"##+++++++ ########## +#+++++##",
"######### ########## #########",
"#########            #########",
"#############  #  #++++++++++#",
"###+++++++######  ############",
"###########+++++  +#+#++++####",
"################ #############",
"                              "
};
