/* XPM */
static char *bf8aa744239a45f8a38b4f983f01f3bcrYH0ir45DPeOrtQi[] = {
/* columns rows colors chars-per-pixel */
"64 64 4 1 ",
"  c black",
". c #B4B4B4",
"X c #D0D0D0",
"o c white",
/* pixels */
"                                                                ",
"                                                                ",
"oooooooooooooooooooooooooooooo  oooooooooooooooooooooooooooooooo",
"oooooooooooooooooooooooooooooo  oooooooooooooooooooooooooooooooo",
"XXXXooXXXooooooooooooooooooooo  oooooooooooooooooooooooooooooooo",
"XXXXooXXXooooooooooooooooooooo  oooooooooooooooooooooooooooooooo",
"XXXXooXXXooooooooXXXXXXXXX            XXXooooooXXXXXXXXXXXooXXXX",
"XXXXooXXXooooooooXXXXXXXXX            XXXooooooXXXXXXXXXXXooXXXX",
"XXXXooXXXooooooooXXXXXXXXX            XXXooooooXXXXXXXXXXXooXXXX",
"oooooooooooooooXXXXXXXX   oooooooooooo   ooooooooooXXXXooooooooo",
"oooooooooooooooXXXXXXXX   oooooooooooo   ooooooooooXXXXooooooooo",
"ooooooXXXXXXXXXoooooo  oooooooooooooooooo  ooooooooooooooooooooo",
"ooooooXXXXXXXXXoooooo  oooooooooooooooooo  ooooooooooooooooooooo",
"ooooooooooooooooooo  oooooooooooooooooooooo  ooooXXXXooooooooooo",
"ooooooooooooooooooo  oooooooooooooooooooooo  ooooXXXXooooooooooo",
"XXXXXXXXXXXXXXXXX  oooooooooooooooooooooooo..  ooooooXXXXXXXXXXX",
"XXXXXXXXXXXXXXXXX  oooooooooooooooooooooooo..  ooooooXXXXXXXXXXX",
"ooooooooooooooooo  ooooooooooooooo    ooooooo  ooooooooooooooooo",
"ooooooooooooooooo  ooooooooooooooo    ooooooo  ooooooooooooooooo",
"ooooooooooooooooo  oooo     oooo         oo..  ooooooooooooooooo",
"ooooooooooooooooo  oooo     oooo         oo..  ooooooooooooooooo",
"                   oooo     oooo         oooo                   ",
"                   oooo     oooo         oooo                   ",
"ooooooooooooooooo  ooooooooooooooo    ooooo..  ooooooooooooooooo",
"ooooooooooooooooo  ooooooooooooooo    ooooo..  ooooooooooooooooo",
"ooooooooooooooooo  ooooooooooooooo    ooooo..  ooooooooooooooooo",
"ooooooooooooooo  oooooooooooooooooooooooooooo  ooooooooooooooooo",
"ooooooooooooooo  oooooooooooooooooooooooooooo  ooooooooooooooooo",
"XXXXXXXXXXXXXXX  oooooooooooooooooooooooooo..  XXXXXXXXXXXoooooo",
"XXXXXXXXXXXXXXX  oooooooooooooooooooooooooo..  XXXXXXXXXXXoooooo",
"XXooooooooooooooo    ......................  ooooooooooooooooooo",
"XXooooooooooooooo    ......................  ooooooooooooooooooo",
"oooooooooXXoooooooooo                      ooooooooooooooooooooo",
"oooooooooXXoooooooooo                      ooooooooooooooooooooo",
"ooooooXXXXXXXXXooooXX                    XXXXXXooooooooooooooooo",
"ooooooXXXXXXXXXooooXX                    XXXXXXooooooooooooooooo",
"ooooooooooooooooooooo       oooooooo       ooooooooXXXXXXXXXXXoo",
"ooooooooooooooooooooo       oooooooo       ooooooooXXXXXXXXXXXoo",
"ooooooooooooooooo         oooooooooooo         ooooooooooooooooo",
"ooooooooooooooooo         oooooooooooo         ooooooooooooooooo",
"ooooooooooooooooo         oooooooooooo         ooooooooooooooooo",
"                          oooooooooooo                          ",
"                          oooooooooooo                          ",
"ooooooooooooooooooooo  oooooooooooooooooo  oo    ooooooooooooooo",
"ooooooooooooooooooooo  oooooooooooooooooo  oo    ooooooooooooooo",
"ooooooooooooooooooooo  oooooooooooooooooo  ooooooooooooooooooooo",
"ooooooooooooooooooooo  oooooooooooooooooo  ooooooooooooooooooooo",
"ooooXXXXXXXXXXXXXXX  oooooooooooooooooooooo  XXooXXXXXXXXXXXoooo",
"ooooXXXXXXXXXXXXXXX  oooooooooooooooooooooo  XXooXXXXXXXXXXXoooo",
"ooooooooooooooooooo  oooooooooooooooooooooo  ooooooooooooooooooo",
"ooooooooooooooooooo  oooooooooooooooooooooo  ooooooooooooooooooo",
"ooooooooooooooooooo                          ooooooooooooooooooo",
"ooooooooooooooooooo                          ooooooooooooooooooo",
"oooooooooooooooooooooooooo    oooo       XXXXXXXXXXXXXXXXXXXXXoo",
"oooooooooooooooooooooooooo    oooo       XXXXXXXXXXXXXXXXXXXXXoo",
"ooooooXXXXXXXXXXXXXXXooooo    oooo       ooooooooooooooooooooooo",
"ooooooXXXXXXXXXXXXXXXooooo    oooo       ooooooooooooooooooooooo",
"ooooooXXXXXXXXXXXXXXXooooo    oooo       ooooooooooooooooooooooo",
"oooooooooooooooooooooooXXXXXXXXXXX  ooXXXooXXooXXXXXXXXooooooooo",
"oooooooooooooooooooooooXXXXXXXXXXX  ooXXXooXXooXXXXXXXXooooooooo",
"oooooooooooooooooooooooooooooooooo  oooooooooooooooooooooooooooo",
"oooooooooooooooooooooooooooooooooo  oooooooooooooooooooooooooooo",
"                                                                ",
"                                                                "
};
