/* XPM */
static char *_7dbab74aafc4763f368602f34c07a81NK5xtIgoBbtUlkYb[] = {
/* columns rows colors chars-per-pixel */
"30 30 4 1 ",
"  c black",
". c #B4B4B4",
"X c #D0D0D0",
"o c white",
/* pixels */
"                              ",
"oooooooooooooo ooooooooooooooo",
"XXoXoooooooooo ooooooooooooooo",
"XXoXooooXXXX      XoooXXXXXoXX",
"oooooooXXXX oooooo oooooXXoooo",
"oooXXXXooo oooooooo oooooooooo",
"ooooooooo oooooooooo ooXXooooo",
"XXXXXXXX ooooooooooo. oooXXXXX",
"oooooooo ooooooo  ooo oooooooo",
"oooooooo oo  oo    o. oooooooo",
"         oo  oo    oo         ",
"oooooooo ooooooo  oo. oooooooo",
"ooooooo ooooooooooooo oooooooo",
"XXXXXXX oooooooooooo. XXXXXooo",
"Xooooooo  .......... ooooooooo",
"ooooXooooo          oooooooooo",
"oooXXXXooX         XXXoooooooo",
"oooooooooo   oooo   ooooXXXXXo",
"oooooooo    oooooo    oooooooo",
"            oooooo            ",
"oooooooooo oooooooo o  ooooooo",
"oooooooooo oooooooo oooooooooo",
"ooXXXXXXX oooooooooo XoXXXXXoo",
"ooooooooo oooooooooo ooooooooo",
"ooooooooo            ooooooooo",
"oooooooooooo  oo   XXXXXXXXXXo",
"oooXXXXXXXoo  oo   ooooooooooo",
"oooooooooooXXXXX oXoXoXXXXoooo",
"oooooooooooooooo ooooooooooooo",
"                              "
};
