/* XPM */
static char *_fcad303f1d0493ee6c88fdd0383ebb7qmChWKhJRBpWrFk9[] = {
/* columns rows colors chars-per-pixel */
"30 30 4 1 ",
"  c black",
". c #B4B4B4",
"X c #D0D0D0",
"o c white",
/* pixels */
"                              ",
"oooooooooooooo ooooooooooooooo",
"XXoXoooooooooo ooooooooooooooo",
"XXoXooooXXX        oooXXXXXoXX",
"oooooooXXXX oooo..  ooooXXoooo",
"oooXXXXoo  .oooooo. oooooooooo",
"oooooooo  .oooooooo. ooXXooooo",
"XXXXXXXX .oooooooooo ooooXXXXX",
"ooooooo ....ooooooo   oooooooo",
"ooooooo ..ooooo  oo   oooooooo",
"        ....ooo  oo           ",
"ooooooo ..ooooooooooo oooooooo",
"ooooooo ...oooooooooo oooooooo",
"XXXXXXX .ooooooooooooo XXXXooo",
"Xoooooo .ooooooooooo.  ooooooo",
"ooooXoo   .........  ooooooooo",
"oooXXXXoo          XXXoooooooo",
"oooooooooo o    ooooooooXXXXXo",
"oooooooooo       ooooooooooooo",
"            o  o              ",
"oooooooooo oo  oo oooooooooooo",
"oooooooooo oo  oo  ooooooooooo",
"ooXXXXXXX ooo  ooo XXXoXXXXXoo",
"ooooooooo oooooooo ooooooooooo",
"ooooooooo          ooooooooooo",
"oooooooooooo   o ooXXXXXXXXXXo",
"oooXXXXXXXoo   o ooooooooooooo",
"oooooooooooXXXXX oXoXoXXXXoooo",
"oooooooooooooooo ooooooooooooo",
"                              "
};
