/* XPM */
static char *_2b6c970818944278a233f72504efd7cfv92221DJyswoorG[] = {
/* columns rows colors chars-per-pixel */
"30 30 9 1 ",
"  c black",
". c gray10",
"X c #272727",
"o c #3F3F3F",
"O c #B4B4B4",
"+ c gray79",
"@ c #D0D0D0",
"# c gray91",
"$ c white",
/* pixels */
"                              ",
"$$$$$$$$$$$$$$ $$$$$$$$$$$$$$$",
"@@$@$$$$$$$$$$ $$$$$$$$$$$$$$$",
"@@$@$$$$@@@@$$ $@@@$$$@@@@@$@@",
"$$$$$$$@@@@        $$$$$@@$$$$",
"$$$@@@@$$$$ $$$$OO  $$$$$$$$$$",
"$$$$$$$$$  O$$$$$$O $$$@@$$$$$",
"@@@@@@@@  O$$$$$$$$O $$$$@@@@@",
"$$$$$$$$ O$$$$#$$$$$ $$$$$$$$$",
"$$$$$$$ OOOO$$$$$$$   $$$$$$$$",
"        OO$$$+$  $$           ",
"$$$$$$$ OOOO$$$  $$   $$$$$$$$",
"$$$$$$$ OO$$$$$$$$$$$ $$$$$$$$",
"@@@@@@@ OOO$$$$$$$$$$ @@@@@$$$",
"@$$$$$$ O$$$$$$$$$$$$$ $$$$$$$",
"$$$$@$$ O$$$$$$$$$$$O  $$$$$$$",
"$$$@@@@   OOOOOOOOO  @$$$$$$$$",
"$$$$$$$$$          $$$$$@@@@@$",
"$$$$$$$$$$       $$$$$$$$$$$$$",
"            $                 ",
"$$$$$$$$$  $$X  $ $$$$$$$$$$$$",
"$$$$$$$$   $$$+    $$$$$$$$$$$",
"$$@@@@@   $$$$$  $ @@@$@@@@@$$",
"$$$$$$$$$ $$$$$$$$ $$$$$$$$$$$",
"$$$$$$$$$          $$$$$$$$$$$",
"$$$$$$$$$$$      $$@@@@@@@@@@$",
"$$$@@@@@@@$o.$$  $$$$$$$$$$$$$",
"$$$$$$$$$$$@@@@@ $@$@$@@@@$$$$",
"$$$$$$$$$$$$$$$$ $$$$$$$$$$$$$",
"                              "
};
