/* XPM */
static char *a79a12bdb6fe476f9c4a5eb95844cf17grDdYOcG1W6okLB4[] = {
/* columns rows colors chars-per-pixel */
"30 30 6 1 ",
"  c black",
". c #151515",
"X c #B4B4B4",
"o c #D0D0D0",
"O c #FBFBFB",
"+ c white",
/* pixels */
"                              ",
"++++++++++++++ +++++++++++++++",
"oo+o++++++++++ +++++++++++++++",
"oo+o++++oooo++ +ooo+++ooooo+oo",
"+++++++ooo        ++++++oo++++",
"+++oooo+++ +++XXX  +++++++++++",
"++++++++  X++++++X o+++oo+++++",
"ooooooo  X++++++++X +++++ooooo",
"+++++++ X++++++++++ ++++++++++",
"++++++ XXXX+++++++   +++++++++",
"       XX+++++  +O            ",
"++++++ XXXX+++  ++   +++++++++",
"++++++ XX+++++++++++ +++++++++",
"oooooo XXX++++++++++ oooooo+++",
"o+++++ X+++++++++++++ ++++++++",
"++++o+ X+++++++++++X  ++++++++",
"+++ooo   XXXXXXXXX  oo++++++++",
"++++++++          ++++++ooooo+",
"++++++++++       +++++++++++++",
"            +++               ",
"++++++++   +++++   +++++++++++",
"++++++    ++++++    ++++++++++",
"++oooo   +O++++++ +ooo+ooooo++",
"++++++++ ++++++++ ++++++++++++",
"++++++++   ..     ++++++++++++",
"++++++++++       ++oooooooooo+",
"+++ooooooo +++   +++++++++++++",
"+++++++++++ooooo +o+o+oooo++++",
"++++++++++++++++ +++++++++++++",
"                              "
};
