/* XPM */
static char *ddc49ca8d98e4e81b6bbcc43f47092bamCLloMr5YTOPvLza[] = {
/* columns rows colors chars-per-pixel */
"64 64 4 1 ",
"  c black",
". c #B4B4B4",
"X c #D0D0D0",
"o c white",
/* pixels */
"                                                                ",
"                                                                ",
"oooooooooooooooooooooooooooooo  oooooooooooooooooooooooooooooooo",
"oooooooooooooooooooooooooooooo  oooooooooooooooooooooooooooooooo",
"XXXXooXXXooooooooooooooooooooo  oooooooooooooooooooooooooooooooo",
"XXXXooXXXooooooooooooooooooooo  oooooooooooooooooooooooooooooooo",
"XXXXooXXXooooooooXXXX                 XXXooooooXXXXXXXXXXXooXXXX",
"XXXXooXXXooooooooXXXX                 XXXooooooXXXXXXXXXXXooXXXX",
"XXXXooXXXooooooooXXXX                 XXXooooooXXXXXXXXXXXooXXXX",
"oooooooooooooooXXXX    ooooooooooooo  oooooooooooooXXXXooooooooo",
"oooooooooooooooXXXX    ooooooooooooo  oooooooooooooXXXXooooooooo",
"ooooooXXXXXXXXXoooo  ooooooooooooooo..     ooooooooooooooooooooo",
"ooooooXXXXXXXXXoooo  ooooooooooooooo..     ooooooooooooooooooooo",
"ooooooooooooooooo  ooooooooooooooooooo...    ooooXXXXooooooooooo",
"ooooooooooooooooo  ooooooooooooooooooo...    ooooXXXXooooooooooo",
"XXXXXXXXXXXXXXXXX  oooooooooooooooooooooo..  ooooooooXXXXXXXXXXX",
"XXXXXXXXXXXXXXXXX  oooooooooooooooooooooo..  ooooooooXXXXXXXXXXX",
"ooooooooooooooo    ooooooo    oooooo.........  ooooooooooooooooo",
"ooooooooooooooo    ooooooo    oooooo.........  ooooooooooooooooo",
"ooooooooooooooo    oooo         ooooooooo....  ooooooooooooooooo",
"ooooooooooooooo    oooo         ooooooooo....  ooooooooooooooooo",
"                 oooooo         oooo.........                   ",
"                 oooooo         oooo.........                   ",
"ooooooooooooooo  ooooooooo    ooooooooooo....  ooooooooooooooooo",
"ooooooooooooooo  ooooooooo    ooooooooooo....  ooooooooooooooooo",
"ooooooooooooooo  ooooooooo    ooooooooooo....  ooooooooooooooooo",
"ooooooooooooooo  ooooooooooooooooooooo.......  ooooooooooooooooo",
"ooooooooooooooo  ooooooooooooooooooooo.......  ooooooooooooooooo",
"XXXXXXXXXXXXX  oooooooooooooooooooooooooooo..  XXXXXXXXXXXoooooo",
"XXXXXXXXXXXXX  oooooooooooooooooooooooooooo..  XXXXXXXXXXXoooooo",
"XXooooooooooo    ............................  ooooooooooooooooo",
"XXooooooooooo    ............................  ooooooooooooooooo",
"oooooooooXXoooooo    ....................      ooooooooooooooooo",
"oooooooooXXoooooo    ....................      ooooooooooooooooo",
"ooooooXXXXXXXXXooooXX                      XXXXooooooooooooooooo",
"ooooooXXXXXXXXXooooXX                      XXXXooooooooooooooooo",
"ooooooooooooooooooooo  ooooo        oooooooooooooooXXXXXXXXXXXoo",
"ooooooooooooooooooooo  ooooo        oooooooooooooooXXXXXXXXXXXoo",
"ooooooooooooooooooooo  ooo            oooooooooooooooooooooooooo",
"ooooooooooooooooooooo  ooo            oooooooooooooooooooooooooo",
"ooooooooooooooooooooo  ooo            oooooooooooooooooooooooooo",
"                            oo    oo                            ",
"                            oo    oo                            ",
"ooooooooooooooooooooooo   oooo    oooo   ooooooooooooooooooooooo",
"ooooooooooooooooooooooo   oooo    oooo   ooooooooooooooooooooooo",
"ooooooooooooooooooooo     oooo    oooo   ooooooooooooooooooooooo",
"ooooooooooooooooooooo     oooo    oooo   ooooooooooooooooooooooo",
"ooooXXXXXXXXXXXXXXXXX  ooooooo    ooooooo  XXXXooXXXXXXXXXXXoooo",
"ooooXXXXXXXXXXXXXXXXX  ooooooo    ooooooo  XXXXooXXXXXXXXXXXoooo",
"ooooooooooooooooooooo  oooooooooooooooooo  ooooooooooooooooooooo",
"ooooooooooooooooooooo  oooooooooooooooooo  ooooooooooooooooooooo",
"oooooooooooooooooooXX                      ooooooooooooooooooooo",
"oooooooooooooooooooXX                      ooooooooooooooooooooo",
"oooooooooooooooooooooooooooooo      oooooXXXXXXXXXXXXXXXXXXXXXoo",
"oooooooooooooooooooooooooooooo      oooooXXXXXXXXXXXXXXXXXXXXXoo",
"ooooooXXXXXXXXXXXXXXXooooooooo      oooooooooooooooooooooooooooo",
"ooooooXXXXXXXXXXXXXXXooooooooo      oooooooooooooooooooooooooooo",
"ooooooXXXXXXXXXXXXXXXooooooooo      oooooooooooooooooooooooooooo",
"oooooooooooooooooooooooXXXXXXXXXXX  ooXXXooXXooXXXXXXXXooooooooo",
"oooooooooooooooooooooooXXXXXXXXXXX  ooXXXooXXooXXXXXXXXooooooooo",
"oooooooooooooooooooooooooooooooooo  oooooooooooooooooooooooooooo",
"oooooooooooooooooooooooooooooooooo  oooooooooooooooooooooooooooo",
"                                                                ",
"                                                                "
};
