/* XPM */
static char *_dcd25ed65db4f31fc99d9dfc3ca41a8sS40HQEIx14WpjJW[] = {
/* columns rows colors chars-per-pixel */
"64 64 6 1 ",
"  c black",
". c #181818",
"X c #515151",
"o c #B4B4B4",
"O c #D0D0D0",
"+ c white",
/* pixels */
"                                                                ",
"                                                                ",
"++++++++++++++++++++++++++++++  ++++++++++++++++++++++++++++++++",
"++++++++++++++++++++++++++++++  ++++++++++++++++++++++++++++++++",
"OOOO++OOO+++++++++++++++++++++  ++++++++++++++++++++++++++++++++",
"OOOO++OOO+++++++++++++++++++++  ++++++++++++++++++++++++++++++++",
"OOOO++OOO++++++++OOOOOOOOO++++  ++OOOOOOO++++++OOOOOOOOOOO++OOOO",
"OOOO++OOO++++++++OOOOOOOOO++++  ++OOOOOOO++++++OOOOOOOOOOO++OOOO",
"OOOO++OOO++++++++OOOOOOOOO++++  ++OOOOOOO++++++OOOOOOOOOOO++OOOO",
"+++++++++++++++OOOOOO                 +++++++++++++OOOO+++++++++",
"+++++++++++++++OOOOOO                 +++++++++++++OOOO+++++++++",
"++++++OOOOOOOOO++++    +++++++++++++  ++++++++++++++++++++++++++",
"++++++OOOOOOOOO++++    +++++++++++++  ++++++++++++++++++++++++++",
"+++++++++++++++++++  +++++++++++++++oo     ++++++OOOO+++++++++++",
"+++++++++++++++++++  +++++++++++++++oo     ++++++OOOO+++++++++++",
"OOOOOOOOOOOOOOOOO  +++++++++++++++++++ooo    ++++++++OOOOOOOOOOO",
"OOOOOOOOOOOOOOOOO  +++++++++++++++++++ooo    ++++++++OOOOOOOOOOO",
"+++++++++++++++++  ++++++++++++++++++++++oo  +++++++++++++++++++",
"+++++++++++++++++  ++++++++++++++++++++++oo  +++++++++++++++++++",
"+++++++++++++++    +++++++....++++++ooooooooo  +++++++++++++++++",
"+++++++++++++++    +++++++....++++++ooooooooo  +++++++++++++++++",
"                   ++++.........+++++++++oooo                   ",
"                   ++++.........+++++++++oooo                   ",
"+++++++++++++++  ++++++.........++++ooooooooo  +++++++++++++++++",
"+++++++++++++++  ++++++.........++++ooooooooo  +++++++++++++++++",
"+++++++++++++++  ++++++.........++++ooooooooo  +++++++++++++++++",
"+++++++++++++++  +++++++++....+++++++++++oooo  +++++++++++++++++",
"+++++++++++++++  +++++++++....+++++++++++oooo  +++++++++++++++++",
"OOOOOOOOOOOOOOO  +++++++++++++++++++++ooooooo  OOOOOOOOOOO++++++",
"OOOOOOOOOOOOOOO  +++++++++++++++++++++ooooooo  OOOOOOOOOOO++++++",
"OO+++++++++++  ++++++++++++++++++++++++++++oo  +++++++++++++++++",
"OO+++++++++++  ++++++++++++++++++++++++++++oo  +++++++++++++++++",
"+++++++++OO++    oooooooooooooooooooooooooooo  +++++++++++++++++",
"+++++++++OO++    oooooooooooooooooooooooooooo  +++++++++++++++++",
"++++++OOOOOOOOO++    oooooooooooooooooooo      +++++++++++++++++",
"++++++OOOOOOOOO++    oooooooooooooooooooo      +++++++++++++++++",
"+++++++++++++++++++++                      ++++++++OOOOOOOOOOO++",
"+++++++++++++++++++++                      ++++++++OOOOOOOOOOO++",
"+++++++++++++++++++++                 ++++++++++++++++++++++++++",
"+++++++++++++++++++++                 ++++++++++++++++++++++++++",
"+++++++++++++++++++++                 ++++++++++++++++++++++++++",
"                            ++++++                              ",
"                            ++++++                              ",
"+++++++++++++++++++       ++++++++XX       +++++++++++++++++++++",
"+++++++++++++++++++       ++++++++XX       +++++++++++++++++++++",
"+++++++++++++++++         ++++++++++++         +++++++++++++++++",
"+++++++++++++++++         ++++++++++++         +++++++++++++++++",
"++++OOOOOOOOOOOOOOOOO  ++++++++++++++++++      ++OOOOOOOOOOO++++",
"++++OOOOOOOOOOOOOOOOO  ++++++++++++++++++      ++OOOOOOOOOOO++++",
"+++++++++++++++++++++  ++++++++++++++++++  +++++++++++++++++++++",
"+++++++++++++++++++++  ++++++++++++++++++  +++++++++++++++++++++",
"+++++++++++++++++++OO           ..         +++++++++++++++++++++",
"+++++++++++++++++++OO           ..         +++++++++++++++++++++",
"++++++++++++++++++++++++++            +++OOOOOOOOOOOOOOOOOOOOO++",
"++++++++++++++++++++++++++            +++OOOOOOOOOOOOOOOOOOOOO++",
"++++++OOOOOOOOOOOOOOO++       ++++    ++++++++++++++++++++++++++",
"++++++OOOOOOOOOOOOOOO++       ++++    ++++++++++++++++++++++++++",
"++++++OOOOOOOOOOOOOOO++       ++++    ++++++++++++++++++++++++++",
"+++++++++++++++++++++++OOOOOOOOOOO  ++OOO++OO++OOOOOOOO+++++++++",
"+++++++++++++++++++++++OOOOOOOOOOO  ++OOO++OO++OOOOOOOO+++++++++",
"++++++++++++++++++++++++++++++++++  ++++++++++++++++++++++++++++",
"++++++++++++++++++++++++++++++++++  ++++++++++++++++++++++++++++",
"                                                                ",
"                                                                "
};
