/* XPM */
static char *_a69d025d0944a6eac0ed2c89f4f9c8cfRdFkVnB7cbYXM3g[] = {
/* columns rows colors chars-per-pixel */
"30 30 4 1 ",
"  c black",
". c #B4B4B4",
"X c #D0D0D0",
"o c white",
/* pixels */
"                              ",
"oooooooooooooo ooooooooooooooo",
"XXoXoooooooooo ooooooooooooooo",
"XXoXooooXX        XoooXXXXXoXX",
"oooooooXX  oooooo ooooooXXoooo",
"oooXXXXoo ooooooo.  oooooooooo",
"oooooooo ooooooooo.  ooXXooooo",
"XXXXXXXX oooooooooo. ooooXXXXX",
"ooooooo  ooo  ooo.... oooooooo",
"ooooooo  oo    oooo.. oooooooo",
"        ooo    oo....         ",
"ooooooo oooo  ooooo.. oooooooo",
"ooooooo oooooooooo... oooooooo",
"XXXXXX ooooooooooooo. XXXXXooo",
"Xooooo  ............. oooooooo",
"ooooXooo  .........   oooooooo",
"oooXXXXooX          XXoooooooo",
"oooooooooo oo    oooooooXXXXXo",
"oooooooooo o      oooooooooooo",
"             o  o             ",
"ooooooooooo oo  oo ooooooooooo",
"oooooooooo  oo  oo ooooooooooo",
"ooXXXXXXXX ooo  ooo XXoXXXXXoo",
"oooooooooo oooooooo oooooooooo",
"oooooooooX          oooooooooo",
"oooooooooooooo   ooXXXXXXXXXXo",
"oooXXXXXXXoooo   ooooooooooooo",
"oooooooooooXXXXX oXoXoXXXXoooo",
"oooooooooooooooo ooooooooooooo",
"                              "
};
