/* XPM */
static char *_872dcc5267e486993300229ae0892d5w997urywSqLvJPR3[] = {
/* columns rows colors chars-per-pixel */
"64 64 11 1 ",
"  c black",
". c #181818",
"X c #272727",
"o c #3F3F3F",
"O c gray28",
"+ c #B4B4B4",
"@ c #C8C8C8",
"# c #D0D0D0",
"$ c #E6E6E6",
"% c gray91",
"& c white",
/* pixels */
"                                                                ",
"                                                                ",
"&&&&&&&&&&&&&&&&&&&&&&&&&&&&&&  &&&&&&&&&&&&&&&&&&&&&&&&&&&&&&&&",
"&&&&&&&&&&&&&&&&&&&&&&&&&&&&&&  &&&&&&&&&&&&&&&&&&&&&&&&&&&&&&&&",
"####&&###&&&&&&&&&&&&&&&&&&&&&  &&&&&&&&&&&&&&&&&&&&&&&&&&&&&&&&",
"####&&###&&&&&&&&&&&&&&&&&&&&&  &&&&&&&&&&&&&&&&&&&&&&&&&&&&&&&&",
"####&&###&&&&&&&&#########&&&&  &&#######&&&&&&###########&&####",
"####&&###&&&&&&&&#########&&&&  &&#######&&&&&&###########&&####",
"####&&###&&&&&&&&#########&&&&  &&#######&&&&&&###########&&####",
"&&&&&&&&&&&&&&&######                 &&&&&&&&&&&&&####&&&&&&&&&",
"&&&&&&&&&&&&&&&######                 &&&&&&&&&&&&&####&&&&&&&&&",
"&&&&&&#########&&&&    &&&&&&&&&&&&&  &&&&&&&&&&&&&&&&&&&&&&&&&&",
"&&&&&&#########&&&&    &&&&&&&&&&&&&  &&&&&&&&&&&&&&&&&&&&&&&&&&",
"&&&&&&&&&&&&&&&&&&&  &&&&&&&&&&&&&&&++     &&&&&&####&&&&&&&&&&&",
"&&&&&&&&&&&&&&&&&&&  &&&&&&&&&&&&&&&++     &&&&&&####&&&&&&&&&&&",
"#################  &&&&&&&&&&&&&&&&&&&+++    &&&&&&&&###########",
"#################  &&&&&&&&&&&&&&&&&&&+++    &&&&&&&&###########",
"&&&&&&&&&&&&&&&&&  &&&&&&&&&&&%%&&&&&&&&&++  &&&&&&&&&&&&&&&&&&&",
"&&&&&&&&&&&&&&&&&  &&&&&&&&&&&%%&&&&&&&&&++  &&&&&&&&&&&&&&&&&&&",
"&&&&&&&&&&&&&&&    &&&&&&&....&&&&&&+++++++++  &&&&&&&&&&&&&&&&&",
"&&&&&&&&&&&&&&&    &&&&&&&....&&&&&&+++++++++  &&&&&&&&&&&&&&&&&",
"                   &&@@.........@@&&&&&&&++++                   ",
"                   &&@@.........@@&&&&&&&++++                   ",
"&&&&&&&&&&&&&&&  &&&&$$.........&&&&+++++++++  &&&&&&&&&&&&&&&&&",
"&&&&&&&&&&&&&&&  &&&&$$.........&&&&+++++++++  &&&&&&&&&&&&&&&&&",
"&&&&&&&&&&&&&&&  &&&&$$.........&&&&+++++++++  &&&&&&&&&&&&&&&&&",
"&&&&&&&&&&&&&&&  &&&&&&&&&....&&&&&&&&&&&++++  &&&&&&&&&&&&&&&&&",
"&&&&&&&&&&&&&&&  &&&&&&&&&....&&&&&&&&&&&++++  &&&&&&&&&&&&&&&&&",
"###############  &&&&&&&&&&&&&&&&&&&&&+++++++  ###########&&&&&&",
"###############  &&&&&&&&&&&&&&&&&&&&&+++++++  ###########&&&&&&",
"##&&&&&&&&&&&  &&&&&&&&&&&&&&&&&&&&&&&&&&&&++  &&&&&&&&&&&&&&&&&",
"##&&&&&&&&&&&  &&&&&&&&&&&&&&&&&&&&&&&&&&&&++  &&&&&&&&&&&&&&&&&",
"&&&&&&&&&##&&    ++++++++++++++++++++++++++++  &&&&&&&&&&&&&&&&&",
"&&&&&&&&&##&&    ++++++++++++++++++++++++++++  &&&&&&&&&&&&&&&&&",
"&&&&&&#########&&    ++++++++++++++++++++      &&&&&&&&&&&&&&&&&",
"&&&&&&#########&&    ++++++++++++++++++++      &&&&&&&&&&&&&&&&&",
"&&&&&&&&&&&&&&&&&&&&&                      &&&&&&&&###########&&",
"&&&&&&&&&&&&&&&&&&&&&                      &&&&&&&&###########&&",
"&&&&&&&&&&&&&&&&&&&&&  &&&            &&&&&&&&&&&&&&&&&&&&&&&&&&",
"&&&&&&&&&&&&&&&&&&&&&  &&&            &&&&&&&&&&&&&&&&&&&&&&&&&&",
"&&&&&&&&&&&&&&&&&&&&&  &&&            &&&&&&&&&&&&&&&&&&&&&&&&&&",
"                                  &&                            ",
"                                  &&                            ",
"&&&&&&&&&&&&&&&&&&&&&&&   &&    XX&&&&     &&&&&&&&&&&&&&&&&&&&&",
"&&&&&&&&&&&&&&&&&&&&&&&   &&    XX&&&&     &&&&&&&&&&&&&&&&&&&&&",
"&&&&&&&&&&&&&&&&&&&&&         @@&&  &&       &&&&&&&&&&&&&&&&&&&",
"&&&&&&&&&&&&&&&&&&&&&         @@&&  &&       &&&&&&&&&&&&&&&&&&&",
"&&&&#################  &&&    &&&&OO&&&&&      &&###########&&&&",
"&&&&#################  &&&    &&&&OO&&&&&      &&###########&&&&",
"&&&&&&&&&&&&&&&&&&&&&  &&&&&&&&&&&&&&&&&&  &&&&&&&&&&&&&&&&&&&&&",
"&&&&&&&&&&&&&&&&&&&&&  &&&&&&&&&&&&&&&&&&  &&&&&&&&&&&&&&&&&&&&&",
"&&&&&&&&&&&&&&&&&&&##                      &&&&&&&&&&&&&&&&&&&&&",
"&&&&&&&&&&&&&&&&&&&##                      &&&&&&&&&&&&&&&&&&&&&",
"&&&&&&&&&&&&&&&&&&&&&&&&&&&&          &&&#####################&&",
"&&&&&&&&&&&&&&&&&&&&&&&&&&&&          &&&#####################&&",
"&&&&&&###############&&&&&    &&&&  oo&&&&&&&&&&&&&&&&&&&&&&&&&&",
"&&&&&&###############&&&&&    &&&&  oo&&&&&&&&&&&&&&&&&&&&&&&&&&",
"&&&&&&###############&&&&&    &&&&  oo&&&&&&&&&&&&&&&&&&&&&&&&&&",
"&&&&&&&&&&&&&&&&&&&&&&&###########  &&###&&##&&########&&&&&&&&&",
"&&&&&&&&&&&&&&&&&&&&&&&###########  &&###&&##&&########&&&&&&&&&",
"&&&&&&&&&&&&&&&&&&&&&&&&&&&&&&&&&&  &&&&&&&&&&&&&&&&&&&&&&&&&&&&",
"&&&&&&&&&&&&&&&&&&&&&&&&&&&&&&&&&&  &&&&&&&&&&&&&&&&&&&&&&&&&&&&",
"                                                                ",
"                                                                "
};
