/* XPM */
static char *_91694c53c854ed3c4b77f1f63b4a96cET2tiwAbjTAYpXsX[] = {
/* columns rows colors chars-per-pixel */
"30 30 4 1 ",
"  c black",
". c #B4B4B4",
"X c #D0D0D0",
"o c white",
/* pixels */
"                              ",
"oooooooooooooo ooooooooooooooo",
"XXoXoooooooooo ooooooooooooooo",
"XXoXooooXXXX        ooXXXXXoXX",
"oooooooXXXXX oooo..  oooXXoooo",
"oooXXXXooo  .oooooo. ooooooooo",
"ooooooooo  .oooooooo. oXXooooo",
"XXXXXXXXX .oooooooooo oooXXXXX",
"oooooooo ....ooooooo   ooooooo",
"oooooooo ..ooooo  oo   ooooooo",
"         ....ooo  oo          ",
"oooooooo ..ooooooooooo ooooooo",
"oooooooo ...oooooooooo ooooooo",
"XXXXXXXo .ooooooooooooo XXXooo",
"Xooooooo ..oooooooooo.  oooooo",
"ooooXooo   .........  oooooooo",
"oooXXXXooX          XXoooooooo",
"oooooooooo oo    oooooooXXXXXo",
"oooooooooo o      oooooooooooo",
"             o  o             ",
"ooooooooooo oo  oo ooooooooooo",
"ooooooooooo oo  oo  oooooooooo",
"ooXXXXXXXX ooo  ooo XXoXXXXXoo",
"oooooooooo oooooooo oooooooooo",
"oooooooooX          oooooooooo",
"ooooooooooooo    ooXXXXXXXXXXo",
"oooXXXXXXXooo    ooooooooooooo",
"oooooooooooXXXXX oXoXoXXXXoooo",
"oooooooooooooooo ooooooooooooo",
"                              "
};
