/* XPM */
static char *_1107f08e1ae48a5bf3a4a3724197900RNO8AiEMdAeZrOkn[] = {
/* columns rows colors chars-per-pixel */
"64 64 4 1 ",
"  c black",
". c #B4B4B4",
"X c #D0D0D0",
"o c white",
/* pixels */
"                                                                ",
"                                                                ",
"oooooooooooooooooooooooooooooo  oooooooooooooooooooooooooooooooo",
"oooooooooooooooooooooooooooooo  oooooooooooooooooooooooooooooooo",
"XXXXooXXXooooooooooooooooooooo  oooooooooooooooooooooooooooooooo",
"XXXXooXXXooooooooooooooooooooo  oooooooooooooooooooooooooooooooo",
"XXXXooXXXooooooooXXXXXXXXX                 ooooXXXXXXXXXXXooXXXX",
"XXXXooXXXooooooooXXXXXXXXX                 ooooXXXXXXXXXXXooXXXX",
"XXXXooXXXooooooooXXXXXXXXX                 ooooXXXXXXXXXXXooXXXX",
"oooooooooooooooXXXXXXXXXXX  oooooooo.....    ooooooXXXXooooooooo",
"oooooooooooooooXXXXXXXXXXX  oooooooo.....    ooooooXXXXooooooooo",
"ooooooXXXXXXXXXoooooo     ..ooooooooooooo..  ooooooooooooooooooo",
"ooooooXXXXXXXXXoooooo     ..ooooooooooooo..  ooooooooooooooooooo",
"ooooooooooooooooooo    ...ooooooooooooooooo..  ooXXXXooooooooooo",
"ooooooooooooooooooo    ...ooooooooooooooooo..  ooXXXXooooooooooo",
"XXXXXXXXXXXXXXXXXXX  ..oooooooooooooooooooooo  ooooooXXXXXXXXXXX",
"XXXXXXXXXXXXXXXXXXX  ..oooooooooooooooooooooo  ooooooXXXXXXXXXXX",
"ooooooooooooooooo  .........ooooooooooooooo      ooooooooooooooo",
"ooooooooooooooooo  .........ooooooooooooooo      ooooooooooooooo",
"ooooooooooooooooo  ....ooooooooooo    ooooo      ooooooooooooooo",
"ooooooooooooooooo  ....ooooooooooo    ooooo      ooooooooooooooo",
"                   .........oooooo    ooooo                     ",
"                   .........oooooo    ooooo                     ",
"ooooooooooooooooo  ....oooooooooooooooooooooooo  ooooooooooooooo",
"ooooooooooooooooo  ....oooooooooooooooooooooooo  ooooooooooooooo",
"ooooooooooooooooo  ....oooooooooooooooooooooooo  ooooooooooooooo",
"ooooooooooooooooo  .......ooooooooooooooooooooo  ooooooooooooooo",
"ooooooooooooooooo  .......ooooooooooooooooooooo  ooooooooooooooo",
"XXXXXXXXXXXXXXXoo  ..oooooooooooooooooooooooooooo  XXXXXXXoooooo",
"XXXXXXXXXXXXXXXoo  ..oooooooooooooooooooooooooooo  XXXXXXXoooooo",
"XXooooooooooooooo  ....oooooooooooooooooooooo..    ooooooooooooo",
"XXooooooooooooooo  ....oooooooooooooooooooooo..    ooooooooooooo",
"oooooooooXXoooooo      ....................    ooooooooooooooooo",
"oooooooooXXoooooo      ....................    ooooooooooooooooo",
"ooooooXXXXXXXXXooooXX                      XXXXooooooooooooooooo",
"ooooooXXXXXXXXXooooXX                      XXXXooooooooooooooooo",
"ooooooooooooooooooooo  ooooo        oooooooooooooooXXXXXXXXXXXoo",
"ooooooooooooooooooooo  ooooo        oooooooooooooooXXXXXXXXXXXoo",
"ooooooooooooooooooooo  ooo            oooooooooooooooooooooooooo",
"ooooooooooooooooooooo  ooo            oooooooooooooooooooooooooo",
"ooooooooooooooooooooo  ooo            oooooooooooooooooooooooooo",
"                            oo    oo                            ",
"                            oo    oo                            ",
"ooooooooooooooooooooooo   oooo    oooo   ooooooooooooooooooooooo",
"ooooooooooooooooooooooo   oooo    oooo   ooooooooooooooooooooooo",
"ooooooooooooooooooooooo   oooo    oooo     ooooooooooooooooooooo",
"ooooooooooooooooooooooo   oooo    oooo     ooooooooooooooooooooo",
"ooooXXXXXXXXXXXXXXXXX  ooooooo    ooooooo  XXXXooXXXXXXXXXXXoooo",
"ooooXXXXXXXXXXXXXXXXX  ooooooo    ooooooo  XXXXooXXXXXXXXXXXoooo",
"ooooooooooooooooooooo  oooooooooooooooooo  ooooooooooooooooooooo",
"ooooooooooooooooooooo  oooooooooooooooooo  ooooooooooooooooooooo",
"oooooooooooooooooooXX                      ooooooooooooooooooooo",
"oooooooooooooooooooXX                      ooooooooooooooooooooo",
"oooooooooooooooooooooooooooo        oooooXXXXXXXXXXXXXXXXXXXXXoo",
"oooooooooooooooooooooooooooo        oooooXXXXXXXXXXXXXXXXXXXXXoo",
"ooooooXXXXXXXXXXXXXXXooooooo        oooooooooooooooooooooooooooo",
"ooooooXXXXXXXXXXXXXXXooooooo        oooooooooooooooooooooooooooo",
"ooooooXXXXXXXXXXXXXXXooooooo        oooooooooooooooooooooooooooo",
"oooooooooooooooooooooooXXXXXXXXXXX  ooXXXooXXooXXXXXXXXooooooooo",
"oooooooooooooooooooooooXXXXXXXXXXX  ooXXXooXXooXXXXXXXXooooooooo",
"oooooooooooooooooooooooooooooooooo  oooooooooooooooooooooooooooo",
"oooooooooooooooooooooooooooooooooo  oooooooooooooooooooooooooooo",
"                                                                ",
"                                                                "
};
