/* XPM */
static char *f69ec708cc844bfddbb978332e5759e1LuEx5pYErMg3mANb[] = {
/* columns rows colors chars-per-pixel */
"64 64 6 1 ",
"  c black",
". c #151515",
"X c #B4B4B4",
"o c #D0D0D0",
"O c #FBFBFB",
"+ c white",
/* pixels */
"                                                                ",
"                                                                ",
"++++++++++++++++++++++++++++++  ++++++++++++++++++++++++++++++++",
"++++++++++++++++++++++++++++++  ++++++++++++++++++++++++++++++++",
"oooo++ooo+++++++++++++++++++++  ++++++++++++++++++++++++++++++++",
"oooo++ooo+++++++++++++++++++++  ++++++++++++++++++++++++++++++++",
"oooo++ooo++++++++ooooooooo++++  ++ooooooo++++++ooooooooooo++oooo",
"oooo++ooo++++++++ooooooooo++++  ++ooooooo++++++ooooooooooo++oooo",
"oooo++ooo++++++++ooooooooo++++  ++ooooooo++++++ooooooooooo++oooo",
"+++++++++++++++oooooo                 +++++++++++++oooo+++++++++",
"+++++++++++++++oooooo                 +++++++++++++oooo+++++++++",
"++++++ooooooooo++++++  +++++++XXXXXX     +++++++++++++++++++++++",
"++++++ooooooooo++++++  +++++++XXXXXX     +++++++++++++++++++++++",
"+++++++++++++++++    XX+++++++++++++XX   oo++++++oooo+++++++++++",
"+++++++++++++++++    XX+++++++++++++XX   oo++++++oooo+++++++++++",
"ooooooooooooooo    XX+++++++++++++++++XXX  ++++++++++ooooooooooo",
"ooooooooooooooo    XX+++++++++++++++++XXX  ++++++++++ooooooooooo",
"+++++++++++++++  XX++++++++++++++++++++++  +++++++++++++++++++++",
"+++++++++++++++  XX++++++++++++++++++++++  +++++++++++++++++++++",
"+++++++++++++  XXXXXXXX+++++++++++++++       +++++++++++++++++++",
"+++++++++++++  XXXXXXXX+++++++++++++++       +++++++++++++++++++",
"               XXXX+++++++++++    ++OO                          ",
"               XXXX+++++++++++    ++OO                          ",
"+++++++++++++  XXXXXXXX+++++++    ++++       +++++++++++++++++++",
"+++++++++++++  XXXXXXXX+++++++    ++++       +++++++++++++++++++",
"+++++++++++++  XXXXXXXX+++++++    ++++       +++++++++++++++++++",
"+++++++++++++  XXXX++++++++++++++++++++++++  +++++++++++++++++++",
"+++++++++++++  XXXX++++++++++++++++++++++++  +++++++++++++++++++",
"ooooooooooooo  XXXXXX++++++++++++++++++++++  ooooooooooooo++++++",
"ooooooooooooo  XXXXXX++++++++++++++++++++++  ooooooooooooo++++++",
"oo+++++++++++  XX++++++++++++++++++++++++++++  +++++++++++++++++",
"oo+++++++++++  XX++++++++++++++++++++++++++++  +++++++++++++++++",
"+++++++++oo++  XX++++++++++++++++++++++++XX    +++++++++++++++++",
"+++++++++oo++  XX++++++++++++++++++++++++XX    +++++++++++++++++",
"++++++ooooooo      XXXXXXXXXXXXXXXXXXX     oooo+++++++++++++++++",
"++++++ooooooo      XXXXXXXXXXXXXXXXXXX     oooo+++++++++++++++++",
"+++++++++++++++++                     +++++++++++++ooooooooooo++",
"+++++++++++++++++                     +++++++++++++ooooooooooo++",
"+++++++++++++++++++++               ++++++++++++++++++++++++++++",
"+++++++++++++++++++++               ++++++++++++++++++++++++++++",
"+++++++++++++++++++++               ++++++++++++++++++++++++++++",
"                          ++++++                                ",
"                          ++++++                                ",
"+++++++++++++++++      +++++++++++       +++++++++++++++++++++++",
"+++++++++++++++++      +++++++++++       +++++++++++++++++++++++",
"+++++++++++++        +++++++++++++         +++++++++++++++++++++",
"+++++++++++++        +++++++++++++         +++++++++++++++++++++",
"++++ooooooooo      ++OO+++++++++++++  +++oooooo++ooooooooooo++++",
"++++ooooooooo      ++OO+++++++++++++  +++oooooo++ooooooooooo++++",
"+++++++++++++++++  +++++++++++++++++  ++++++++++++++++++++++++++",
"+++++++++++++++++  +++++++++++++++++  ++++++++++++++++++++++++++",
"+++++++++++++++++      .....          ++++++++++++++++++++++++++",
"+++++++++++++++++      .....          ++++++++++++++++++++++++++",
"+++++++++++++++++++++               +++++ooooooooooooooooooooo++",
"+++++++++++++++++++++               +++++ooooooooooooooooooooo++",
"++++++ooooooooooooooo  +++++++      ++++++++++++++++++++++++++++",
"++++++ooooooooooooooo  +++++++      ++++++++++++++++++++++++++++",
"++++++ooooooooooooooo  +++++++      ++++++++++++++++++++++++++++",
"+++++++++++++++++++++++ooooooooooo  ++ooo++oo++oooooooo+++++++++",
"+++++++++++++++++++++++ooooooooooo  ++ooo++oo++oooooooo+++++++++",
"++++++++++++++++++++++++++++++++++  ++++++++++++++++++++++++++++",
"++++++++++++++++++++++++++++++++++  ++++++++++++++++++++++++++++",
"                                                                ",
"                                                                "
};
