/* XPM */
static char *_8757320dfdb4161c16b566fcff6aeb24BLVtlqfF3qPqmsd[] = {
/* columns rows colors chars-per-pixel */
"64 64 9 1 ",
"  c black",
". c gray10",
"X c #272727",
"o c #3F3F3F",
"O c #B4B4B4",
"+ c gray79",
"@ c #D0D0D0",
"# c gray91",
"$ c white",
/* pixels */
"                                                                ",
"                                                                ",
"$$$$$$$$$$$$$$$$$$$$$$$$$$$$$$  $$$$$$$$$$$$$$$$$$$$$$$$$$$$$$$$",
"$$$$$$$$$$$$$$$$$$$$$$$$$$$$$$  $$$$$$$$$$$$$$$$$$$$$$$$$$$$$$$$",
"@@@@$$@@@$$$$$$$$$$$$$$$$$$$$$  $$$$$$$$$$$$$$$$$$$$$$$$$$$$$$$$",
"@@@@$$@@@$$$$$$$$$$$$$$$$$$$$$  $$$$$$$$$$$$$$$$$$$$$$$$$$$$$$$$",
"@@@@$$@@@$$$$$$$$@@@@@@@@@$$$$  $$@@@@@@@$$$$$$@@@@@@@@@@@$$@@@@",
"@@@@$$@@@$$$$$$$$@@@@@@@@@$$$$  $$@@@@@@@$$$$$$@@@@@@@@@@@$$@@@@",
"@@@@$$@@@$$$$$$$$@@@@@@@@@$$$$  $$@@@@@@@$$$$$$@@@@@@@@@@@$$@@@@",
"$$$$$$$$$$$$$$$@@@@@@@@                  $$$$$$$$$$@@@@$$$$$$$$$",
"$$$$$$$$$$$$$$$@@@@@@@@                  $$$$$$$$$$@@@@$$$$$$$$$",
"$$$$$$@@@@@@@@@$$$$$$$$   $$$$$$$$OOOO     $$$$$$$$$$$$$$$$$$$$$",
"$$$$$$@@@@@@@@@$$$$$$$$   $$$$$$$$OOOO     $$$$$$$$$$$$$$$$$$$$$",
"$$$$$$$$$$$$$$$$$$$    OOO$$$$$$$$$$$$OOO  $$$$$$@@@@$$$$$$$$$$$",
"$$$$$$$$$$$$$$$$$$$    OOO$$$$$$$$$$$$OOO  $$$$$$@@@@$$$$$$$$$$$",
"@@@@@@@@@@@@@@@@@    OO$$$$$$$$$$$$$$$$$$OO  $$$$$$$$@@@@@@@@@@@",
"@@@@@@@@@@@@@@@@@    OO$$$$$$$$$$$$$$$$$$OO  $$$$$$$$@@@@@@@@@@@",
"$$$$$$$$$$$$$$$$$  OO$$$$$$$$$##$$$$$$$$$$$  $$$$$$$$$$$$$$$$$$$",
"$$$$$$$$$$$$$$$$$  OO$$$$$$$$$##$$$$$$$$$$$  $$$$$$$$$$$$$$$$$$$",
"$$$$$$$$$$$$$$$  OOOOOOOOO$$$$$$$$$$$$$$$      $$$$$$$$$$$$$$$$$",
"$$$$$$$$$$$$$$$  OOOOOOOOO$$$$$$$$$$$$$$$      $$$$$$$$$$$$$$$$$",
"                 OOOO$$$$$$$++$$    $$$$$                       ",
"                 OOOO$$$$$$$++$$    $$$$$                       ",
"$$$$$$$$$$$$$$$  OOOOOOOOO$$$$$$    $$$$$      $$$$$$$$$$$$$$$$$",
"$$$$$$$$$$$$$$$  OOOOOOOOO$$$$$$    $$$$$      $$$$$$$$$$$$$$$$$",
"$$$$$$$$$$$$$$$  OOOOOOOOO$$$$$$    $$$$$      $$$$$$$$$$$$$$$$$",
"$$$$$$$$$$$$$$$  OOOO$$$$$$$$$$$$$$$$$$$$$$$$  $$$$$$$$$$$$$$$$$",
"$$$$$$$$$$$$$$$  OOOO$$$$$$$$$$$$$$$$$$$$$$$$  $$$$$$$$$$$$$$$$$",
"@@@@@@@@@@@@@@@  OOOOOO$$$$$$$$$$$$$$$$$$$$$$  @@@@@@@@@@@$$$$$$",
"@@@@@@@@@@@@@@@  OOOOOO$$$$$$$$$$$$$$$$$$$$$$  @@@@@@@@@@@$$$$$$",
"@@$$$$$$$$$$$$$  OO$$$$$$$$$$$$$$$$$$$$$$$$$$$$  $$$$$$$$$$$$$$$",
"@@$$$$$$$$$$$$$  OO$$$$$$$$$$$$$$$$$$$$$$$$$$$$  $$$$$$$$$$$$$$$",
"$$$$$$$$$@@$$$$  OO$$$$$$$$$$$$$$$$$$$$$$$$OO    $$$$$$$$$$$$$$$",
"$$$$$$$$$@@$$$$  OO$$$$$$$$$$$$$$$$$$$$$$$$OO    $$$$$$$$$$$$$$$",
"$$$$$$@@@@@@@@@      OOOOOOOOOOOOOOOOOOOO    @@$$$$$$$$$$$$$$$$$",
"$$$$$$@@@@@@@@@      OOOOOOOOOOOOOOOOOOOO    @@$$$$$$$$$$$$$$$$$",
"$$$$$$$$$$$$$$$$$$$                      $$$$$$$$$$@@@@@@@@@@@$$",
"$$$$$$$$$$$$$$$$$$$                      $$$$$$$$$$@@@@@@@@@@@$$",
"$$$$$$$$$$$$$$$$$$$$$               $$$$$$$$$$$$$$$$$$$$$$$$$$$$",
"$$$$$$$$$$$$$$$$$$$$$               $$$$$$$$$$$$$$$$$$$$$$$$$$$$",
"$$$$$$$$$$$$$$$$$$$$$               $$$$$$$$$$$$$$$$$$$$$$$$$$$$",
"                          $$                                    ",
"                          $$                                    ",
"$$$$$$$$$$$$$$$$$$$    $$$$$XX    $$  $$$$$$$$$$$$$$$$$$$$$$$$$$",
"$$$$$$$$$$$$$$$$$$$    $$$$$XX    $$  $$$$$$$$$$$$$$$$$$$$$$$$$$",
"$$$$$$$$$$$$$$$$$      $$$$$$$++         $$$$$$$$$$$$$$$$$$$$$$$",
"$$$$$$$$$$$$$$$$$      $$$$$$$++         $$$$$$$$$$$$$$$$$$$$$$$",
"$$$$@@@@@@@@@@@      $$$$$$$$$$$    $$   @@@@@@$$@@@@@@@@@@@$$$$",
"$$$$@@@@@@@@@@@      $$$$$$$$$$$    $$   @@@@@@$$@@@@@@@@@@@$$$$",
"$$$$$$$$$$$$$$$$$$$  $$$$$$$$$$$$$$$$$   $$$$$$$$$$$$$$$$$$$$$$$",
"$$$$$$$$$$$$$$$$$$$  $$$$$$$$$$$$$$$$$   $$$$$$$$$$$$$$$$$$$$$$$",
"$$$$$$$$$$$$$$$$$$$                      $$$$$$$$$$$$$$$$$$$$$$$",
"$$$$$$$$$$$$$$$$$$$                      $$$$$$$$$$$$$$$$$$$$$$$",
"$$$$$$$$$$$$$$$$$$$$$$$             $$$$$@@@@@@@@@@@@@@@@@@@@@$$",
"$$$$$$$$$$$$$$$$$$$$$$$             $$$$$@@@@@@@@@@@@@@@@@@@@@$$",
"$$$$$$@@@@@@@@@@@@@@@$$ooo..$$$$    $$$$$$$$$$$$$$$$$$$$$$$$$$$$",
"$$$$$$@@@@@@@@@@@@@@@$$ooo..$$$$    $$$$$$$$$$$$$$$$$$$$$$$$$$$$",
"$$$$$$@@@@@@@@@@@@@@@$$ooo..$$$$    $$$$$$$$$$$$$$$$$$$$$$$$$$$$",
"$$$$$$$$$$$$$$$$$$$$$$$@@@@@@@@@@@  $$@@@$$@@$$@@@@@@@@$$$$$$$$$",
"$$$$$$$$$$$$$$$$$$$$$$$@@@@@@@@@@@  $$@@@$$@@$$@@@@@@@@$$$$$$$$$",
"$$$$$$$$$$$$$$$$$$$$$$$$$$$$$$$$$$  $$$$$$$$$$$$$$$$$$$$$$$$$$$$",
"$$$$$$$$$$$$$$$$$$$$$$$$$$$$$$$$$$  $$$$$$$$$$$$$$$$$$$$$$$$$$$$",
"                                                                ",
"                                                                "
};
