/* XPM */
static char *_cd92b7e53be41e1d6853e30f2658f9fF2dY9b875xfkvsH0[] = {
/* columns rows colors chars-per-pixel */
"30 30 5 1 ",
"  c black",
". c #625E5E",
"X c gray67",
"o c #ACACAC",
"O c #FEFEFE",
/* pixels */
"                              ",
"                              ",
"  OOOOOOOOOOOOOOOOOOOOOOOOO.  ",
"  Ooooooooooooooooooooooooo.  ",
"  Ooooooooooooooooooooooooo.  ",
"  Ooooooooooooooooooooooooo.  ",
"  OoooooooooooooooooooooooX.  ",
"  OoooooooooooooooooooooXoX.  ",
"  OoooooooooooooooooooooooX.  ",
"  Ooooooooooooooooooooooooo.  ",
"  Ooooooooooooooooooooooooo.  ",
"  Ooooooooooooooooooooooooo.  ",
"  Ooooooooooooooooooooooooo.  ",
"  OoooooooooooooooooooXoooo.  ",
"  Ooooooooooooooooooooooooo.  ",
"  Ooooooooooooooooooooooooo.  ",
"  Ooooooooooooooooooooooooo.  ",
"  OoooooooooooooooooXoooooo.  ",
"  Ooooooooooooooooooooooooo.  ",
"  Ooooooooooooooooooooooooo.  ",
"  Ooooooooooooooooooooooooo.  ",
"  OoooooooooooooooooooooXoo.  ",
"  Ooooooooooooooooooooooooo.  ",
"  OoooXoooooooooooooooooooo.  ",
"  Ooooooooooooooooooooooooo.  ",
"  OoooooooooooooooooooooooX.  ",
"  OoooXooooooXXXooXoooooXoX.  ",
"  ..........................  ",
"                              ",
"                              "
};
